<?xml version="1.0" standalone="no"?>
<!DOCTYPE svg PUBLIC "-//W3C//DTD SVG 1.1//EN" "http://www.w3.org/Graphics/SVG/1.1/DTD/svg11.dtd" >
<svg>
<metadata>
Created by FontForge 20090914 at Sun Aug 25 19:20:03 2013
 By www-data
Copyright (c) 1989, 1990 Adobe Systems Incorporated.  All Rights Reserved.Trade Gothic is a trademark of Linotype AG and/or its subsidiaries.
</metadata>
<defs>
<font id="TradeGothic-Light" horiz-adv-x="556" >
  <font-face 
    font-family="TradeGothic-Light"
    font-weight="300"
    font-stretch="normal"
    units-per-em="1000"
    panose-1="2 11 4 0 0 0 0 0 0 0"
    ascent="800"
    descent="-200"
    x-height="520"
    cap-height="722"
    bbox="-46 -212.001 1000 949"
    underline-thickness="50"
    underline-position="-50"
    unicode-range="U+0020-U+2122"
  />
<missing-glyph horiz-adv-x="502" 
d="M-1 0h500v500h-500v-500zM9 10v480h480v-480h-480z" />
    <glyph glyph-name=".notdef" horiz-adv-x="502" 
d="M-1 0h500v500h-500v-500zM9 10v480h480v-480h-480z" />
    <glyph glyph-name="space" unicode=" " horiz-adv-x="278" 
 />
    <glyph glyph-name="exclam" unicode="!" horiz-adv-x="222" 
d="M68 722l18 -500h50l18 500h-86zM154 0v90h-86v-90h86z" />
    <glyph glyph-name="quotedbl" unicode="&#x22;" horiz-adv-x="333" 
d="M86 496h50v226h-50v-226zM197 496h50v226h-50v-226z" />
    <glyph glyph-name="numbersign" unicode="#" 
d="M502 283h-106l22 157h113v48h-106l33 234h-50l-33 -234h-147l33 234h-50l-33 -234h-124v-48h118l-23 -157h-124v-48h118l-33 -235h49l33 235h148l-33 -235h49l33 235h113v48zM369 440l-23 -157h-147l22 157h148z" />
    <glyph glyph-name="dollar" unicode="$" 
d="M255 722c-59.333 -1.33301 -107.498 -17.668 -144.498 -49.001s-55.5 -76.333 -55.5 -135c0 -27.333 5.66699 -51.833 17 -73.5s26.5 -40 45.5 -55s39.833 -27.5 62.5 -37.5s47.667 -19 75 -27v-297c-39.333 0 -74.833 12.333 -106.5 37s-55.834 56 -72.501 94l-47 -33
c20.667 -44 51.167 -78.833 91.5 -104.5s85.166 -39.5 134.499 -41.5v-119h48v119c28 0 55.167 4.16699 81.5 12.5s49.166 20.5 68.499 36.5c44 34.667 66 81.334 66 140.001c0 30 -6.16699 56.167 -18.5 78.5s-28.666 41.333 -48.999 57s-42.5 28.5 -66.5 38.5
s-51.333 19.333 -82 28v282c64 -8 112.667 -42.333 146 -103c0.666992 0.666992 9.66699 7.66699 27 21c10 8.66699 15.333 13 16 13c-13.333 29.333 -37.5 55.833 -72.5 79.5s-73.833 36.5 -116.5 38.5v70h-48v-70zM255.002 404.998
c-20.667 5.33301 -39.5 11.502 -56.5 18.502s-32.167 15.667 -45.5 26s-24 23.166 -32 38.499s-12 33.666 -12 54.999c0 39.333 14.333 71 43 95s63 36 103 36v-269zM303.002 332l4.99902 -2c24.667 -8 45 -15.5 61 -22.5s31.5 -15.667 46.5 -26s27 -23 36 -38
s13.5 -32.5 13.5 -52.5s-4.5 -38.667 -13.5 -56s-21.167 -32.5 -36.5 -45.5s-32.666 -23 -51.999 -30s-39.333 -10.833 -60 -11.5v284z" />
    <glyph glyph-name="percent" unicode="%" horiz-adv-x="889" 
d="M246 722c-22 0 -43 -4.16699 -63 -12.5s-37.667 -20.166 -53 -35.499s-27.166 -33 -35.499 -53s-12.5 -41 -12.5 -63s4.16699 -43 12.5 -63s20.166 -37.667 35.499 -53s33 -27.166 53 -35.499s41 -12.5 63 -12.5s43 4.16699 63 12.5s37.667 20.166 53 35.499
s27.166 33 35.499 53s12.5 41 12.5 63s-4.16699 43 -12.5 63s-20.166 37.667 -35.499 53s-33 27.166 -53 35.499s-41 12.5 -63 12.5zM246 674c32 0 59.333 -11.167 82 -33.5s34 -49.833 34 -82.5c0 -32 -11.333 -59.333 -34 -82s-50 -34 -82 -34s-59.333 11.333 -82 34
s-34 50 -34 82c0 32.667 11.333 60.167 34 82.5s50 33.5 82 33.5zM643 328c-22 0 -43 -4.16699 -63 -12.5s-37.667 -20.166 -53 -35.499s-27.166 -33 -35.499 -53s-12.5 -41 -12.5 -63s4.16699 -43 12.5 -63s20.166 -37.667 35.499 -53s33 -27.166 53 -35.499
s41 -12.5 63 -12.5s43 4.16699 63 12.5s37.667 20.166 53 35.499s27.166 33 35.499 53s12.5 41 12.5 63s-4.16699 43 -12.5 63s-20.166 37.667 -35.499 53s-33 27.166 -53 35.499s-41 12.5 -63 12.5zM643 280c32 0 59.333 -11.167 82 -33.5s34 -49.833 34 -82.5
c0 -32 -11.333 -59.333 -34 -82s-50 -34 -82 -34s-59.333 11.333 -82 34s-34 50 -34 82c0 32.667 11.333 60.167 34 82.5s50 33.5 82 33.5zM684 732h-53l-424 -742h52z" />
    <glyph glyph-name="ampersand" unicode="&#x26;" horiz-adv-x="667" 
d="M109 172c0 46 10.665 82.668 31.998 110.001s54.333 53.333 99 78c10.667 -18 24.167 -38.833 40.5 -62.5l50 -70.5c17 -23.333 33.833 -45.333 50.5 -66s31 -36.334 43 -47.001c-17.333 -18 -39.166 -34.167 -65.499 -48.5s-58.166 -21.5 -95.499 -21.5
c-41.333 0 -77.333 11.333 -108 34s-46 54 -46 94zM217.998 574.001c0 35.333 6.99902 61.5 20.999 78.5s33.333 25.5 58 25.5c26.667 0 46.834 -7.33301 60.501 -22s20.5 -34 20.5 -58c0 -28.667 -10.833 -57.167 -32.5 -85.5s-49.5 -51.833 -83.5 -70.5
c-14 19.333 -24.833 40.5 -32.5 63.5s-11.5 45.833 -11.5 68.5zM538.997 340.001c-13.333 -65.333 -38.3301 -126.338 -74.9971 -183.005c-20 21.333 -38.5 43.833 -55.5 67.5l-65.5 93.5l-47 69l1 1c24.667 18 44.5 33.333 59.5 46s29.333 27 43 43s24.5 33.667 32.5 53
s12 40.666 12 63.999c0 42.667 -13.5 76.334 -40.5 101.001s-61.5 37 -103.5 37c-46 0 -82.167 -13.333 -108.5 -40s-39.5 -63.667 -39.5 -111c0 -28 5.16699 -56.5 15.5 -85.5s24.166 -56.5 41.499 -82.5c-31.333 -21.333 -57.333 -40.666 -78 -57.999
s-37.5 -34.666 -50.5 -51.999s-22.5 -36.166 -28.5 -56.499s-9 -43.833 -9 -70.5c0 -59.333 21 -105.166 63 -137.499s93.333 -48.5 154 -48.5c38 0 75 7 111 21s67.667 33.333 95 58c24 -23.333 50.167 -42 78.5 -56s58.166 -21.667 89.499 -23v60
c-23.333 1.33301 -45.333 7.83301 -66 19.5s-40 26.834 -58 45.501c43.333 63.333 73.666 134.333 90.999 213z" />
    <glyph glyph-name="quotesingle" unicode="'" horiz-adv-x="222" 
d="M86 496h50v226h-50v-226z" />
    <glyph glyph-name="parenleft" unicode="(" horiz-adv-x="333" 
d="M206 732c-44.667 -60 -78.834 -125.835 -102.501 -197.502s-35.5 -141.5 -35.5 -209.5c0 -67.333 11.833 -137 35.5 -209s57.834 -138 102.501 -198h72c-50 58.667 -87.5 123.834 -112.5 195.501s-37.5 142.167 -37.5 211.5s12.5 139.833 37.5 211.5
s62.5 136.834 112.5 195.501h-72z" />
    <glyph glyph-name="parenright" unicode=")" horiz-adv-x="333" 
d="M127 -82c44.667 60 78.834 126.002 102.501 198.002s35.5 141.667 35.5 209c0 68 -11.833 137.833 -35.5 209.5s-57.834 137.5 -102.501 197.5h-72c50 -58.667 87.5 -123.834 112.5 -195.501s37.5 -142.167 37.5 -211.5s-12.5 -139.833 -37.5 -211.5
s-62.5 -136.834 -112.5 -195.501h72z" />
    <glyph glyph-name="asterisk" unicode="*" horiz-adv-x="500" 
d="M278 722h-54l13 -141l-132 51l-18 -52l143 -30l-93 -108l45 -30l70 124l68 -124l44 35l-91 103l140 34l-16 50l-130 -53z" />
    <glyph glyph-name="plus" unicode="+" horiz-adv-x="600" 
d="M273 287h-233v-54h233v-233h54v233h233v54h-233v233h-54v-233z" />
    <glyph glyph-name="comma" unicode="," horiz-adv-x="278" 
d="M96 90v-90h42l-58 -150h39l63 150v90h-86z" />
    <glyph glyph-name="hyphen" unicode="-" horiz-adv-x="333" 
d="M291 233v54h-249v-54h249z" />
    <glyph glyph-name="period" unicode="." horiz-adv-x="278" 
d="M182 0v90h-86v-90h86z" />
    <glyph glyph-name="slash" unicode="/" horiz-adv-x="278" 
d="M290 732h-55l-247 -742h59z" />
    <glyph glyph-name="zero" unicode="0" 
d="M278 732c-42.667 0 -79.8311 -9.5 -111.498 -28.5s-57.834 -45.333 -78.501 -79s-35.834 -72.834 -45.501 -117.501s-14.5 -93.334 -14.5 -146.001c0 -52 4.83301 -100.5 14.5 -145.5s24.667 -84.333 45 -118s46.5 -60 78.5 -79s69.333 -28.5 112 -28.5s80 9.5 112 28.5
s58.167 45.333 78.5 79s35.333 73 45 118s14.5 93.5 14.5 145.5c0 52.667 -4.83301 101.334 -14.5 146.001s-24.667 83.834 -45 117.501s-46.5 60 -78.5 79s-69.333 28.5 -112 28.5zM278.003 678c62.667 0 109 -28.167 139 -84.5s45 -133.833 45 -232.5
s-15 -176.167 -45 -232.5s-76.333 -84.5 -139 -84.5s-109 28.167 -139 84.5s-45 133.833 -45 232.5s15 176.167 45 232.5s76.333 84.5 139 84.5z" />
    <glyph glyph-name="one" unicode="1" 
d="M444 0v54h-120v678h-42l-162 -53v-39l138 20v-606h-124v-54h310z" />
    <glyph glyph-name="two" unicode="2" 
d="M110 515c24 108.667 80.666 162.998 169.999 162.998c52.667 0 92.334 -13.5 119.001 -40.5s40 -63.5 40 -109.5c0 -20.667 -1.33301 -37.5 -4 -50.5s-8.66699 -26.333 -18 -40s-23.666 -29.167 -42.999 -46.5s-47 -39.666 -83 -66.999c-48.667 -36 -89.667 -69 -123 -99
s-58.833 -56.167 -76.5 -78.5s-30 -41.833 -37 -58.5s-10.5 -32 -10.5 -46v-42h456v54h-396c0.666992 16 8.16699 34 22.5 54s32.333 40 54 60s44.5 39.333 68.5 58s48.333 36.667 73 54c35.333 24.667 64.333 47.334 87 68.001s40.667 40.5 54 59.5
s22.666 38.333 27.999 58s8 41.167 8 64.5c0 62 -19 111.167 -57 147.5s-89.667 54.5 -155 54.5c-61.333 0 -112.833 -18.167 -154.5 -54.5s-68.5 -86.833 -80.5 -151.5z" />
    <glyph glyph-name="three" unicode="3" 
d="M14 134c20 -48 50.665 -84.001 91.998 -108.001s91.666 -36 150.999 -36c76 0 136.167 17.5 180.5 52.5s66.5 88.833 66.5 161.5c0 46.667 -12.167 84.667 -36.5 114s-58.166 52 -101.499 68c42 18.667 71.833 41.167 89.5 67.5s26.5 60.5 26.5 102.5
c0 32 -6.66699 59.5 -20 82.5s-30.666 41.333 -51.999 55s-44.666 23.5 -69.999 29.5s-50.666 9 -75.999 9c-40.667 0 -78.834 -9 -114.501 -27s-70.167 -47 -103.5 -87l47 -34c26 32.667 52 56.5 78 71.5s55.333 22.5 88 22.5c50.667 0 89.5 -10.333 116.5 -31
s40.5 -53 40.5 -97c0 -47.333 -16.5 -82.5 -49.5 -105.5s-82.5 -34.5 -148.5 -34.5h-54v-54h66c138.667 0 208 -51.333 208 -154c0 -51.333 -14.667 -90.5 -44 -117.5s-74 -40.5 -134 -40.5c-48 0 -86.833 8.83301 -116.5 26.5s-55.167 48.834 -76.5 93.501z" />
    <glyph glyph-name="four" unicode="4" 
d="M346 660h7v-424h-273zM14 182h339v-182h66v182h109v53h-109v487h-88l-317 -489v-51z" />
    <glyph glyph-name="five" unicode="5" 
d="M124 327c13.333 30.667 35.4971 54.999 66.4971 72.999s62.833 27 95.5 27c53.333 0 95 -17.667 125 -53s45 -82 45 -140c0 -24.667 -3.66699 -48.334 -11 -71.001s-18.5 -43 -33.5 -61s-34.167 -32.167 -57.5 -42.5s-50.666 -15.5 -81.999 -15.5
c-39.333 0 -72.833 9.16699 -100.5 27.5s-51.5 47.833 -71.5 88.5l-54 -35c20.667 -43.333 50.5 -76.666 89.5 -99.999s81.833 -35 128.5 -35c80.667 0 142.834 22.833 186.501 68.5s65.5 105.834 65.5 180.501c0 33.333 -5 64.5 -15 93.5s-24.667 54.667 -44 77
s-42.666 39.833 -69.999 52.5s-58 19 -92 19c-63.333 0 -117.333 -21.333 -162 -64l20 251h310v54h-359l-32 -386z" />
    <glyph glyph-name="six" unicode="6" 
d="M495 672c-52.667 40 -109.668 60.001 -171.001 60.001c-48.667 0 -91.334 -11.5 -128.001 -34.5s-66.834 -53.833 -90.501 -92.5s-41.167 -81.334 -52.5 -128.001s-17 -94 -17 -142c0 -45.333 3.83301 -88.166 11.5 -128.499s20.667 -76.833 39 -109.5
s43.833 -58.667 76.5 -78s73 -29 121 -29c32.667 0 63.834 5.16699 93.501 15.5s55.834 25.333 78.501 45s40.334 43.5 53.001 71.5s19 58.667 19 92c0 68.667 -20.833 125.5 -62.5 170.5s-98.167 67.5 -169.5 67.5c-36 0 -71 -8.83301 -105 -26.5
s-63.667 -40.834 -89 -69.501c0 36.667 4 73.667 12 111s20.667 72 38 104s40.333 57.833 69 77.5s62.667 29.5 102 29.5c30 0 56.833 -4.16699 80.5 -12.5s44.167 -22.5 61.5 -42.5zM461.999 225.001c0 -56 -15.332 -100.167 -45.999 -132.5s-74 -48.5 -130 -48.5
c-54.667 0 -98.667 19.333 -132 58s-50 90.334 -50 155.001c0 7.33301 4.66699 18.833 14 34.5s22.333 31.667 39 48s36 30.166 58 41.499s45.333 17 70 17c55.333 0 98.666 -16.167 129.999 -48.5s47 -73.833 47 -124.5z" />
    <glyph glyph-name="seven" unicode="7" 
d="M55 668h376l-308 -668h71l307 683v39h-446v-54z" />
    <glyph glyph-name="eight" unicode="8" 
d="M278 732c-70 0 -125.167 -15.667 -165.5 -47s-60.5 -76.666 -60.5 -135.999c0 -80 46 -136.333 138 -169c-59.333 -26.667 -101.833 -56.167 -127.5 -88.5s-38.5 -67.5 -38.5 -105.5c0 -68.667 22.333 -118.5 67 -149.5s107 -46.5 187 -46.5s142.333 15.5 187 46.5
s67 80.833 67 149.5c0 38 -12.833 73.167 -38.5 105.5s-68.167 61.833 -127.5 88.5c92 32.667 138 89 138 169c0 59.333 -20.167 104.666 -60.5 135.999s-95.5 47 -165.5 47zM90 186c0 36 14.833 66 44.5 90s77.5 49.333 143.5 76c66 -26.667 113.833 -52 143.5 -76
s44.5 -54 44.5 -90c0 -47.333 -17.333 -82.833 -52 -106.5s-80 -35.5 -136 -35.5s-101.333 11.833 -136 35.5s-52 59.167 -52 106.5zM118 552c0 41.333 14.5 72.666 43.5 93.999s67.833 32 116.5 32s87.5 -10.667 116.5 -32s43.5 -52.666 43.5 -93.999
c0 -36.667 -14.333 -66.834 -43 -90.501s-67.667 -42.167 -117 -55.5c-49.333 13.333 -88.333 31.833 -117 55.5s-43 53.834 -43 90.501z" />
    <glyph glyph-name="nine" unicode="9" 
d="M51 50c26 -20 54.1689 -34.999 84.502 -44.999s64.5 -15 102.5 -15c50 0 92.667 11.5 128 34.5s63.5 53.833 84.5 92.5s36.167 81.167 45.5 127.5s14 93.833 14 142.5c0 45.333 -3.83301 88.166 -11.5 128.499s-20.667 76.833 -39 109.5s-43.833 58.667 -76.5 78
s-73 29 -121 29c-32.667 0 -63.834 -5.33301 -93.501 -16s-55.667 -26.5 -78 -47.5s-40 -46.333 -53 -76s-19.5 -63.167 -19.5 -100.5c0 -30 5.16699 -58.667 15.5 -86s25.666 -51.833 45.999 -73.5s44.833 -38.834 73.5 -51.501s61 -19 97 -19s71 9 105 27
s63.667 41.667 89 71c0 -41.333 -4 -80.5 -12 -117.5s-20.833 -70.5 -38.5 -100.5s-41 -53.833 -70 -71.5s-63.5 -26.5 -103.5 -26.5c-30 0 -55.667 4.83301 -77 14.5s-42 23.834 -62 42.501zM84.002 497.001c0 56.667 15.499 101 46.499 133s74.167 48 129.5 48
s99.5 -19.5 132.5 -58.5s49.5 -92.5 49.5 -160.5c0 -7.33301 -4.66699 -18.833 -14 -34.5s-22.333 -32 -39 -49s-36 -31.167 -58 -42.5s-45.333 -17 -70 -17c-55.333 0 -98.666 16.833 -129.999 50.5s-47 77.167 -47 130.5z" />
    <glyph glyph-name="colon" unicode=":" horiz-adv-x="278" 
d="M182 0v90h-86v-90h86zM182 304v90h-86v-90h86z" />
    <glyph glyph-name="semicolon" unicode=";" horiz-adv-x="278" 
d="M96 90v-90h42l-58 -150h39l63 150v90h-86zM182 304v90h-86v-90h86z" />
    <glyph glyph-name="less" unicode="&#x3c;" horiz-adv-x="600" 
d="M560 52l-452 208l452 208v58l-520 -238v-56l520 -238v58z" />
    <glyph glyph-name="equal" unicode="=" horiz-adv-x="600" 
d="M560 387h-520v-54h520v54zM560 187h-520v-54h520v54z" />
    <glyph glyph-name="greater" unicode="&#x3e;" horiz-adv-x="600" 
d="M40 -6l520 238v56l-520 238v-58l452 -208l-452 -208v-58z" />
    <glyph glyph-name="question" unicode="?" horiz-adv-x="389" 
d="M79 584c10 26 24.167 48.1689 42.5 66.502s42.166 27.5 71.499 27.5c28.667 0 52.5 -8.5 71.5 -25.5s28.5 -40.5 28.5 -70.5c0 -28.667 -7.16699 -54.5 -21.5 -77.5s-35.166 -50.167 -62.499 -81.5c-25.333 -27.333 -44 -50.5 -56 -69.5s-18 -39.5 -18 -61.5v-72h54v48
c0 27.333 7 51.333 21 72s34.667 45 62 73c28.667 29.333 50.334 55.166 65.001 77.499s22 48.5 22 78.5c0 51.333 -16 91.333 -48 120s-71 43 -117 43c-40.667 0 -74.834 -10.833 -102.501 -32.5s-48.5 -51.834 -62.5 -90.501zM202 0.00195312v90h-86v-90h86z" />
    <glyph glyph-name="at" unicode="@" horiz-adv-x="800" 
d="M338 189c-24.667 0 -45.499 9.5 -62.499 28.5s-25.5 43.5 -25.5 73.5c0 24.667 4.33301 51 13 79s21 54.167 37 78.5s35 44 57 59s45.333 22.5 70 22.5c20 0 38.5 -10.167 55.5 -30.5s25.5 -42.5 25.5 -66.5c0 -22.667 -4.33301 -48.167 -13 -76.5s-21 -55.333 -37 -81
s-34.333 -46.5 -55 -62.5s-42.334 -24 -65.001 -24zM540.001 497c-10.667 29.333 -25.3311 50.8301 -43.998 64.4971s-40.334 20.5 -65.001 20.5c-35.333 0 -67.833 -8.5 -97.5 -25.5s-55.5 -39.833 -77.5 -68.5s-38.833 -60.667 -50.5 -96s-17.5 -70.666 -17.5 -105.999
c0 -42 12.5 -77.333 37.5 -106s57.833 -43 98.5 -43c24 0 47.167 6.5 69.5 19.5s42.833 29.167 61.5 48.5l2 2c1.33301 -22.667 8.33301 -40 21 -52s28.334 -18 47.001 -18c26 0 52.333 7.66699 79 23s51.334 36.333 74.001 63s40.667 57.334 54 92.001s20 70.667 20 108
c0 44 -8.5 84.833 -25.5 122.5s-41 70.5 -72 98.5s-67 49.667 -108 65s-84.833 23 -131.5 23c-48.667 0 -95.334 -9.5 -140.001 -28.5s-84 -45.5 -118 -79.5s-60.667 -73.333 -80 -118s-29 -92 -29 -142c0 -50.667 9.33301 -98.834 28 -144.501s45 -85.667 79 -120
s73.667 -61.166 119 -80.499s93.666 -29 144.999 -29c64.667 0 126 16.333 184 49s102.333 77 133 133h-52c-30 -42 -69 -75.5 -117 -100.5s-97.333 -37.5 -148 -37.5c-42.667 0 -83.5 8.33301 -122.5 25s-73.333 40 -103 70s-52.667 64.667 -69 104
s-24.5 80.666 -24.5 123.999c0 44 8 86 24 126s38.333 75.5 67 106.5s62.5 55.167 101.5 72.5s80.5 26 124.5 26c37.333 0 73 -6.16699 107 -18.5s64.167 -30.166 90.5 -53.499s47.166 -51.166 62.499 -83.499s23 -67.833 23 -106.5c0 -27.333 -4.66699 -55.5 -14 -84.5
s-22 -55.5 -38 -79.5s-33.833 -43.167 -53.5 -57.5s-39.5 -21.5 -59.5 -21.5c-17.333 0 -26 9.66699 -26 29c0 11.333 4.33301 30 13 56l98 295h-54z" />
    <glyph glyph-name="A" unicode="A" horiz-adv-x="611" 
d="M186 290l119 378h2l120 -378h-241zM25 0h70l74 236h273l73 -236h70l-228 722h-101z" />
    <glyph glyph-name="B" unicode="B" horiz-adv-x="667" 
d="M166 348h150c69.333 0 120.833 -13.333 154.5 -40s50.5 -62 50.5 -106c0 -50.667 -14.833 -88 -44.5 -112s-76.167 -36 -139.5 -36h-171v294zM166 668l130.001 0.000976562c68.667 0 118.5 -9.33301 149.5 -28s46.5 -53.334 46.5 -104.001
c0 -25.333 -4.66699 -46.833 -14 -64.5s-21.833 -31.5 -37.5 -41.5s-33.334 -17.167 -53.001 -21.5s-41.167 -6.5 -64.5 -6.5h-157v266zM100.001 0.000976562h230.001c83.333 0 145.666 14.333 186.999 43c23.333 16 40.833 36.667 52.5 62s17.5 56.333 17.5 93
c0 44 -11.5 81.667 -34.5 113s-55.167 56 -96.5 74c36 16.667 62 37.167 78 61.5s24 55.833 24 94.5c0 62.667 -20.5 108.5 -61.5 137.5s-105.833 43.5 -194.5 43.5h-202v-722z" />
    <glyph glyph-name="C" unicode="C" horiz-adv-x="611" 
d="M557 523c-16.667 64 -44.001 114.836 -82.001 152.503s-87.667 56.5 -149 56.5c-43.333 0 -82.166 -8.83301 -116.499 -26.5s-63.5 -42.834 -87.5 -75.501s-42.333 -71.667 -55 -117s-19 -96 -19 -152c0 -55.333 6.33301 -105.833 19 -151.5s31 -84.834 55 -117.501
s53.167 -57.834 87.5 -75.501s73.166 -26.5 116.499 -26.5c71.333 0 126.333 19.167 165 57.5s65.334 92.166 80.001 161.499l-62 11c-6.66699 -26 -14.5 -49.167 -23.5 -69.5s-20.333 -38.5 -34 -54.5s-30.834 -28.667 -51.501 -38s-45 -14 -73 -14
c-36.667 0 -68.5 8 -95.5 24s-49.167 38.333 -66.5 67s-30.166 62.167 -38.499 100.5s-12.5 80.166 -12.5 125.499c0 44.667 4.16699 86.334 12.5 125.001s21 72.334 38 101.001s38.5 51 64.5 67s56.333 24 91 24c42.667 0 78.667 -14.5 108 -43.5s52 -70.5 68 -124.5z" />
    <glyph glyph-name="D" unicode="D" horiz-adv-x="667" 
d="M166 668h140c79.333 0 140.166 -26.667 182.499 -80s63.5 -129 63.5 -227s-21.167 -173.667 -63.5 -227s-103.166 -80 -182.499 -80h-140v614zM100 0h204c54 0 101.167 9.5 141.5 28.5s73.166 45 98.499 78s44 71.333 56 115s18 90.167 18 139.5s-6 95.833 -18 139.5
s-30.667 82 -56 115s-58.166 59 -98.499 78s-87.5 28.5 -141.5 28.5h-204v-722z" />
    <glyph glyph-name="E" unicode="E" 
d="M531 0v54h-365v294h249v54h-249v266h346v54h-412v-722h431z" />
    <glyph glyph-name="F" unicode="F" 
d="M166 0v348h261v54h-261v266h358v54h-424v-722h66z" />
    <glyph glyph-name="G" unicode="G" horiz-adv-x="667" 
d="M572 523c-12.667 63.333 -40.1699 113.998 -82.5029 151.998s-96.166 57 -161.499 57c-38.667 0 -75 -8.16699 -109 -24.5s-63.833 -40.333 -89.5 -72s-45.667 -70.667 -60 -117s-21.5 -98.833 -21.5 -157.5c0 -116.667 25.5 -207.667 76.5 -273s117.833 -98 200.5 -98
c49.333 0 88.833 6.33301 118.5 19s55.5 33.334 77.5 62.001h2v-71h57v338h-248v-54h182v-66c0 -49.333 -15.667 -90.666 -47 -123.999s-72 -50 -122 -50c-44.667 0 -82.167 8.83301 -112.5 26.5s-54.166 41.5 -71.499 71.5s-29.5 63.5 -36.5 100.5s-10.5 76.5 -10.5 118.5
c0 97.333 19 174.5 57 231.5s89 85.5 153 85.5c50.667 0 91.334 -15.167 122.001 -45.5s52 -70.5 64 -120.5z" />
    <glyph glyph-name="H" unicode="H" horiz-adv-x="722" 
d="M100 0h66v348h390v-348h66v722h-66v-320h-390v320h-66v-722z" />
    <glyph glyph-name="I" unicode="I" horiz-adv-x="278" 
d="M106 0h66v722h-66v-722z" />
    <glyph glyph-name="J" unicode="J" horiz-adv-x="444" 
d="M0 86c19.333 -34 40.833 -58.501 64.5 -73.501s56.5 -22.5 98.5 -22.5c52 0 92.833 13.833 122.5 41.5s44.5 67.834 44.5 120.501v570h-66v-550c0 -44 -8 -76.333 -24 -97s-40.333 -31 -73 -31c-30 0 -52.5 5.33301 -67.5 16s-30.5 29.667 -46.5 57z" />
    <glyph glyph-name="K" unicode="K" horiz-adv-x="611" 
d="M100 0h66v241l136 157l229 -398h74l-261 446l233 276h-81l-330 -392v392h-66v-722z" />
    <glyph glyph-name="L" unicode="L" horiz-adv-x="500" 
d="M100 0h388v54h-322v668h-66v-722z" />
    <glyph glyph-name="M" unicode="M" horiz-adv-x="833" 
d="M166 0v668h2l217 -668h63l217 668h2v-668h66v722h-116l-200 -612h-2l-199 612h-116v-722h66z" />
    <glyph glyph-name="N" unicode="N" horiz-adv-x="722" 
d="M100 0h66v668h2l386 -668h68v722h-66v-602h-2l-343 602h-111v-722z" />
    <glyph glyph-name="O" unicode="O" horiz-adv-x="667" 
d="M333 732c-44 0 -83.833 -9.16699 -119.5 -27.5s-65.834 -44.166 -90.501 -77.499s-43.334 -72.666 -56.001 -117.999s-19 -94.666 -19 -147.999s6.33301 -102.666 19 -147.999s31.334 -84.666 56.001 -117.999s54.834 -59.166 90.501 -77.499s75.5 -27.5 119.5 -27.5
s83.833 9.16699 119.5 27.5s65.834 44.166 90.501 77.499s43.334 72.666 56.001 117.999s19 94.666 19 147.999s-6.33301 102.666 -19 147.999s-31.334 84.666 -56.001 117.999s-54.834 59.166 -90.501 77.499s-75.5 27.5 -119.5 27.5zM333 44
c-67.333 0 -120.666 27.833 -159.999 83.5s-59 133.5 -59 233.5s19.667 177.833 59 233.5s92.666 83.5 159.999 83.5s120.666 -27.833 159.999 -83.5s59 -133.5 59 -233.5s-19.667 -177.833 -59 -233.5s-92.666 -83.5 -159.999 -83.5z" />
    <glyph glyph-name="P" unicode="P" horiz-adv-x="611" 
d="M166 0v320.002h152c83.333 0 144.833 17.667 184.5 53s59.5 84.666 59.5 147.999s-19.833 112.666 -59.5 147.999s-101.167 53 -184.5 53h-218v-722h66zM166 668.002l152 0.00195312c61.333 0 106.333 -12.333 135 -37s43 -61.334 43 -110.001
s-14.333 -85.334 -43 -110.001s-73.667 -37 -135 -37h-152v294z" />
    <glyph glyph-name="Q" unicode="Q" horiz-adv-x="667" 
d="M644 0c-32 0 -56.8311 4.83008 -74.498 14.4971s-34.167 27.834 -49.5 54.501c32 32.667 56.333 74.167 73 124.5s25 106.166 25 167.499c0 53.333 -6.33301 102.666 -19 147.999s-31.334 84.666 -56.001 117.999s-54.834 59.166 -90.501 77.499s-75.5 27.5 -119.5 27.5
s-83.833 -9.16699 -119.5 -27.5s-65.834 -44.166 -90.501 -77.499s-43.334 -72.666 -56.001 -117.999s-19 -94.666 -19 -147.999s6.33301 -102.666 19 -147.999s31.334 -84.666 56.001 -117.999s54.834 -59.166 90.501 -77.499s75.5 -27.5 119.5 -27.5
c54 0 101.333 13.667 142 41c18 -32 42 -55.167 72 -69.5s62.333 -21.5 97 -21.5v60zM352.002 156.997c20.667 -2.66699 37.834 -9.66797 51.501 -21.001s28.167 -30 43.5 -56c-32 -24 -70 -36 -114 -36c-67.333 0 -120.666 27.833 -159.999 83.5s-59 133.5 -59 233.5
s19.667 177.833 59 233.5s92.666 83.5 159.999 83.5s120.666 -27.833 159.999 -83.5s59 -133.5 59 -233.5c0 -101.333 -20 -179.666 -60 -234.999c-36 54 -82.667 86 -140 96v-65z" />
    <glyph glyph-name="R" unicode="R" horiz-adv-x="667" 
d="M166 668h178.001c51.333 0 90.166 -12.333 116.499 -37s39.5 -59.667 39.5 -105c0 -44 -14 -78.667 -42 -104s-66 -38 -114 -38h-178v284zM416.001 342c50.667 12.667 88.333 34.5 113 65.5s37 70.5 37 118.5c0 60 -19.5 107.667 -58.5 143s-93.5 53 -163.5 53h-244v-722
h66v330h187l168 -330h72z" />
    <glyph glyph-name="S" unicode="S" 
d="M32 183c20 -66 50.6689 -114.662 92.002 -145.995s96.333 -47 165 -47c29.333 0 57.333 4.16699 84 12.5s50 20.5 70 36.5c44 35.333 66 82.666 66 141.999c0 27.333 -3.33301 50.833 -10 70.5s-18.667 38.167 -36 55.5s-41.833 34.166 -73.5 50.499
s-73.167 34.166 -124.5 53.499c-32.667 12 -58.834 23.5 -78.501 34.5s-34.334 21.667 -44.001 32s-16.167 20.666 -19.5 30.999s-5 22.5 -5 36.5c0 42 13 74.667 39 98s60.333 35 103 35c44 0 80.5 -12.167 109.5 -36.5s50.5 -57.5 64.5 -99.5l57 17
c-16.667 55.333 -45 98 -85 128s-88.667 45 -146 45c-65.333 0 -116.333 -17.333 -153 -52s-55 -79.667 -55 -135c0 -30 5.83301 -55.833 17.5 -77.5s27.334 -39.834 47.001 -54.501s40.5 -26.667 62.5 -36s50 -20.333 84 -33c30 -10.667 54.5 -20 73.5 -28
s36.667 -17.833 53 -29.5s29.333 -25.5 39 -41.5s14.5 -35 14.5 -57c0 -44 -12.833 -79 -38.5 -105s-60.834 -39 -105.501 -39c-57.333 0 -102.5 12.667 -135.5 38s-56.5 65.333 -70.5 120z" />
    <glyph glyph-name="T" unicode="T" 
d="M31 668h214v-668h66v668h214v54h-494v-54z" />
    <glyph glyph-name="U" unicode="U" horiz-adv-x="722" 
d="M100 722v-486c0 -164 87 -246 261 -246s261 82 261 246v486h-66v-492c0 -67.333 -16 -115.166 -48 -143.499s-81 -42.5 -147 -42.5s-115 14.167 -147 42.5s-48 76.166 -48 143.499v492h-66z" />
    <glyph glyph-name="V" unicode="V" 
d="M242 0h66l240 722h-70l-202 -628h-2l-196 628h-70z" />
    <glyph glyph-name="W" unicode="W" horiz-adv-x="833" 
d="M207 0h66l141 594h2l141 -594h66l193 722h-67l-157 -602h-2l-141 602h-66l-144 -602h-2l-154 602h-67z" />
    <glyph glyph-name="X" unicode="X" 
d="M237 378l-225 -378h78l186 316l190 -316h78l-229 378l208 344h-78l-169 -288l-173 288h-78z" />
    <glyph glyph-name="Y" unicode="Y" 
d="M241 0h66v306l229 416h-74l-190 -357l-178 357h-74l221 -416v-306z" />
    <glyph glyph-name="Z" unicode="Z" 
d="M77 668h346l-377 -614v-54h464v54h-382l377 612v56h-428v-54z" />
    <glyph glyph-name="bracketleft" unicode="[" horiz-adv-x="333" 
d="M88 722v-794h186v36h-126v722h126v36h-186z" />
    <glyph glyph-name="backslash" unicode="\" horiz-adv-x="278" 
d="M231 -10h59l-247 742h-55z" />
    <glyph glyph-name="bracketright" unicode="]" horiz-adv-x="333" 
d="M245 -72v794h-186v-36h126v-722h-126v-36h186z" />
    <glyph glyph-name="asciicircum" unicode="^" horiz-adv-x="600" 
d="M273 722l-217 -426h66l176 354l180 -354h66l-218 426h-53z" />
    <glyph glyph-name="underscore" unicode="_" horiz-adv-x="500" 
d="M500 -125v50h-500v-50h500z" />
    <glyph glyph-name="grave" unicode="`" horiz-adv-x="222" 
d="M-14 716l137 -138h51l-111 138h-77z" />
    <glyph glyph-name="a" unicode="a" horiz-adv-x="500" 
d="M424 0c-5.33301 31.333 -8.00098 63.002 -8.00098 95.002v272c0 56.667 -14.167 98 -42.5 124s-72.166 39 -131.499 39c-43.333 0 -80.833 -9.33301 -112.5 -28s-58.5 -48.667 -80.5 -90l40 -24c40 62.667 90.333 94 151 94c43.333 0 74 -8.33301 92 -25s27 -43 27 -79
v-36c-67.333 -14.667 -119.166 -27 -155.499 -37s-68 -22.333 -95 -37s-47.5 -33.334 -61.5 -56.001s-21 -51.334 -21 -86.001c0 -42 13.5 -75.167 40.5 -99.5s61.167 -36.5 102.5 -36.5c38 0 70.667 5.66699 98 17s57.666 30 90.999 56l8 -63h58zM355.999 124.002
c-26 -26.667 -55 -47.668 -87 -63.001s-62 -23 -90 -23s-50.5 7.83301 -67.5 23.5s-25.5 37.5 -25.5 65.5c0 18.667 3.16699 35 9.5 49s18.833 27.667 37.5 41s46 26.333 82 39s83 25.334 141 38.001v-170z" />
    <glyph glyph-name="b" unicode="b" 
d="M92 0l42 -0.000976562l10 68c18.667 -26 42 -45.5 70 -58.5s60.333 -19.5 97 -19.5c67.333 0 119 23.333 155 70s54 114.334 54 203.001c0 38 -5 73.333 -15 106s-24 61 -42 85s-39.667 42.667 -65 56s-53 20 -83 20c-34 0 -63.167 -6 -87.5 -18s-49.5 -32 -75.5 -60v270
h-60v-722zM152 388.999c5.33301 9.33301 13.168 19.332 23.501 29.999s22.5 20.834 36.5 30.501s28.5 17.5 43.5 23.5s29.5 9 43.5 9c52.667 0 92.667 -20.833 120 -62.5s41 -97.5 41 -167.5c0 -63.333 -12.833 -114.833 -38.5 -154.5s-63.5 -59.5 -113.5 -59.5
c-34 0 -62.833 8.16699 -86.5 24.5s-46.834 39.833 -69.501 70.5v256z" />
    <glyph glyph-name="c" unicode="c" horiz-adv-x="500" 
d="M450 389c-16 44.667 -39.833 79.3359 -71.5 104.003s-71.167 37 -118.5 37c-68.667 0 -123.167 -23.167 -163.5 -69.5s-60.5 -113.166 -60.5 -200.499c0 -80.667 19.5 -145.834 58.5 -195.501s94.167 -74.5 165.5 -74.5c46 0 85.333 11.833 118 35.5
s61.334 56.167 86.001 97.5l-48 23c-23.333 -36.667 -46.5 -63.834 -69.5 -81.501s-51.833 -26.5 -86.5 -26.5c-51.333 0 -91.5 20.167 -120.5 60.5s-43.5 94.166 -43.5 161.499c0 77.333 14.333 133.666 43 168.999s69 53 121 53c32 0 58.667 -9.5 80 -28.5
s39.666 -45.5 54.999 -79.5z" />
    <glyph glyph-name="d" unicode="d" 
d="M464 722l-60 0.000976562v-270c-26 28 -51.167 48 -75.5 60s-53.5 18 -87.5 18c-30 0 -57.5 -6.66699 -82.5 -20s-46.667 -32 -65 -56s-32.5 -52.333 -42.5 -85s-15 -68 -15 -106c0 -88.667 18 -156.334 54 -203.001s87.667 -70 155 -70c36.667 0 69 6.5 97 19.5
s51.333 32.5 70 58.5l10 -68h42v722zM404 133.001c-22 -30.667 -44.999 -54.166 -68.999 -70.499s-53 -24.5 -87 -24.5c-50 0 -87.833 19.833 -113.5 59.5s-38.5 91.167 -38.5 154.5c0 70 13.833 125.833 41.5 167.5s67.5 62.5 119.5 62.5c14 0 28.667 -3 44 -9
s29.833 -13.833 43.5 -23.5s25.667 -19.834 36 -30.501s18.166 -20.667 23.499 -30v-256z" />
    <glyph glyph-name="e" unicode="e" horiz-adv-x="500" 
d="M458 258c0 83.333 -17.5 149.5 -52.5 198.5s-86.833 73.5 -155.5 73.5c-65.333 0 -117.333 -24.667 -156 -74s-58 -114.666 -58 -195.999c0 -89.333 19.5 -156.666 58.5 -201.999s93.5 -68 163.5 -68c48.667 0 88 9.5 118 28.5s59.333 51.833 88 98.5l-49 26
c-26 -40.667 -49.5 -68.334 -70.5 -83.001s-48.167 -22 -81.5 -22c-28.667 0 -53.667 5.66699 -75 17s-38.833 27.166 -52.5 47.499s-23.667 43.833 -30 70.5s-9.5 55 -9.5 85h362zM96 306c0 18 3.16992 37.334 9.50293 58.001s15.666 40 27.999 58s28.166 32.5 47.499 43.5
s41.666 16.5 66.999 16.5c44 -0.666992 78.5 -16.334 103.5 -47.001s40.5 -73.667 46.5 -129h-302z" />
    <glyph glyph-name="f" unicode="f" horiz-adv-x="278" 
d="M262 472v48h-106v81c0 29.333 5.83301 50.5 17.5 63.5s29.5 19.5 53.5 19.5c18 0 37.667 -3.33301 59 -10v50l-3 1c-27.333 4.66699 -48 7 -62 7c-43.333 0 -75 -11.5 -95 -34.5s-30 -57.5 -30 -103.5v-74h-86v-48h86v-472h60v472h106z" />
    <glyph glyph-name="g" unicode="g" horiz-adv-x="500" 
d="M481 540c-42 0 -78.3281 -15.3311 -108.995 -45.998c-17.333 12 -36 21 -56 27s-41.667 9 -65 9c-62.667 0 -112.667 -16.833 -150 -50.5s-56 -79.167 -56 -136.5c0 -26.667 6.66699 -52 20 -76s31.666 -44 54.999 -60c-20 -4 -38 -14.333 -54 -31s-24 -35.667 -24 -57
c0 -20 6 -35.167 18 -45.5s29 -17.833 51 -22.5v-2c-34 -12.667 -57.667 -28 -71 -46s-20 -39.333 -20 -64c0 -16.667 3.66699 -32.334 11 -47.001s19.666 -27.667 36.999 -39s40.833 -20.333 70.5 -27s65.834 -10 108.501 -10c43.333 0 80.333 3.66699 111 11
s55.167 17.5 73.5 30.5s31.666 27.833 39.999 44.5s12.5 35 12.5 55c0 44 -17.833 77.5 -53.5 100.5s-91.5 34.5 -167.5 34.5c-66.667 0 -111 3.66699 -133 11c-10.667 3.33301 -18 7.83301 -22 13.5s-6 12.5 -6 20.5c0 22 16 38.667 48 50
c15.333 -5.33301 29.333 -9.33301 42 -12s26.667 -4 42 -4c59.333 0 107.666 15.167 144.999 45.5s56 75.833 56 136.5c0 24 -3.16699 44.5 -9.5 61.5s-15.5 32.833 -27.5 47.5c9.33301 9.33301 21.166 15.666 35.499 18.999s30.166 5 47.499 5v54zM234.005 38.002
c37.333 0 68.499 -2.33301 93.499 -7s44.5 -10.834 58.5 -18.501s23.833 -16.667 29.5 -27s8.5 -21.166 8.5 -32.499c0 -28 -15.167 -49.833 -45.5 -65.5s-77.166 -23.5 -140.499 -23.5c-52 0 -91.333 7.66699 -118 23s-40 36.333 -40 63c0 25.333 12 46.333 36 63
s63.333 25 118 25zM105.004 349.002c0 40.667 11.999 73 35.999 97s57 36 99 36c43.333 0 76.666 -11 99.999 -33s35 -55.333 35 -100c0 -44 -11.667 -76.667 -35 -98s-56.666 -32 -99.999 -32c-39.333 0 -71.666 11 -96.999 33s-38 54.333 -38 97z" />
    <glyph glyph-name="h" unicode="h" 
d="M142 0l0.000976562 383l18 16c33.333 30.667 59.666 52.167 78.999 64.5s42.333 18.5 69 18.5c38.667 0 66 -11 82 -33s24 -55.333 24 -100v-349h60v355c0 58 -12.5 101.667 -37.5 131s-63.833 44 -116.5 44c-36 0 -67 -7.33301 -93 -22s-54.333 -38 -85 -70v284h-60
v-722h60z" />
    <glyph glyph-name="i" unicode="i" horiz-adv-x="222" 
d="M141 520h-60v-520h60v520zM141 634v88h-60v-88h60z" />
    <glyph glyph-name="j" unicode="j" horiz-adv-x="222" 
d="M-20 -178c14 -4 32 -6 54 -6c35.333 0 62 7.83301 80 23.5s27 41.5 27 77.5v603h-60v-602c0 -36 -19.667 -54 -59 -54c-11.333 0 -25.333 2.33301 -42 7v-49zM141 634v88h-60v-88h60z" />
    <glyph glyph-name="k" unicode="k" horiz-adv-x="500" 
d="M142 0v168l103 116l166 -284h67l-195 326l169 194h-69l-241 -276v478h-60v-722h60z" />
    <glyph glyph-name="l" unicode="l" horiz-adv-x="222" 
d="M81 0h60v722h-60v-722z" />
    <glyph glyph-name="m" unicode="m" horiz-adv-x="833" 
d="M142 0l0.00195312 383c8 12 18.167 24 30.5 36s26 22.833 41 32.5s29.667 17.167 44 22.5s27.166 8 38.499 8c60 0 90 -29 90 -87v-395h60v383c8 12 18.167 24 30.5 36s26 22.833 41 32.5s29.667 17.167 44 22.5s27.166 8 38.499 8c60 0 90 -29 90 -87v-395h60v389
c0 94 -45.667 141 -137 141c-34.667 0 -65.5 -8.16699 -92.5 -24.5s-53.5 -39.833 -79.5 -70.5c-7.33301 28.667 -22.833 51.667 -46.5 69s-50.167 26 -79.5 26c-37.333 0 -68 -6.83301 -92 -20.5s-51 -36.5 -81 -68.5v79h-60v-520h60z" />
    <glyph glyph-name="n" unicode="n" 
d="M142 0l0.000976562 383l18 16c33.333 30.667 59.666 52.167 78.999 64.5s42.333 18.5 69 18.5c38.667 0 66 -11 82 -33s24 -55.333 24 -100v-349h60v355c0 58 -12.5 101.667 -37.5 131s-63.833 44 -116.5 44c-36 0 -67 -7.33301 -93 -22s-54.333 -38 -85 -70v82h-60v-520
h60z" />
    <glyph glyph-name="o" unicode="o" horiz-adv-x="500" 
d="M250 482c52.667 0 91.5 -19 116.5 -57s37.5 -93 37.5 -165s-12.5 -127 -37.5 -165s-63.833 -57 -116.5 -57s-91.5 19 -116.5 57s-37.5 93 -37.5 165s12.5 127 37.5 165s63.833 57 116.5 57zM250 530c-39.333 0 -72.833 -7.16699 -100.5 -21.5s-49.834 -34 -66.501 -59
s-28.667 -53.5 -36 -85.5s-11 -66.667 -11 -104s3.66699 -72 11 -104s19.333 -60.5 36 -85.5s38.834 -44.667 66.501 -59s61.167 -21.5 100.5 -21.5s72.833 7.16699 100.5 21.5s49.834 34 66.501 59s28.667 53.5 36 85.5s11 66.667 11 104s-3.66699 72 -11 104
s-19.333 60.5 -36 85.5s-38.834 44.667 -66.501 59s-61.167 21.5 -100.5 21.5z" />
    <glyph glyph-name="p" unicode="p" 
d="M92 -184h59.999v252c26 -28 51.167 -48 75.5 -60s53.5 -18 87.5 -18c62.667 0 112.5 22.5 149.5 67.5s55.5 111.5 55.5 199.5c0 36 -4.66699 70.5 -14 103.5s-22.833 62.167 -40.5 87.5s-39.667 45.333 -66 60s-55.833 22 -88.5 22c-63.333 0 -115.666 -30 -156.999 -90
h-2v80h-60v-704zM151.999 387c32 34 58.499 58.3311 79.499 72.998s46.5 22 76.5 22c25.333 0 47.5 -5.83301 66.5 -17.5s34.833 -27.667 47.5 -48s22.167 -43.166 28.5 -68.499s9.5 -52 9.5 -80c0 -73.333 -13.5 -130 -40.5 -170s-67.167 -60 -120.5 -60
c-14 0 -28.5 3 -43.5 9s-29.5 13.833 -43.5 23.5s-26.167 19.834 -36.5 30.501s-18.166 20.667 -23.499 30v256z" />
    <glyph glyph-name="q" unicode="q" 
d="M464 516l-42 0.000976562l-10 -67c-22.667 24.667 -47.667 43.667 -75 57s-58 20 -92 20c-67.333 0 -119 -23.167 -155 -69.5s-54 -113.5 -54 -201.5c0 -37.333 5 -72.333 15 -105s24.167 -60.834 42.5 -84.501s40 -42.167 65 -55.5s52.5 -20 82.5 -20c34 0 63 6 87 18
s49.333 31.667 76 59v-251h60v700zM404 130.001c-5.33301 -8.66699 -13.167 -18.3311 -23.5 -28.998s-22.333 -20.834 -36 -30.501s-28.167 -17.5 -43.5 -23.5s-30 -9 -44 -9c-52 0 -91.833 20.667 -119.5 62s-41.5 96.666 -41.5 165.999c0 62.667 12.833 113.667 38.5 153
s63.5 59 113.5 59c34 0 63 -8 87 -24s47 -39.333 69 -70v-254z" />
    <glyph glyph-name="r" unicode="r" horiz-adv-x="333" 
d="M138 0l0.000976562 294.001c0 24 4.66699 46.833 14 68.5s21.666 40.667 36.999 57s31.833 29.166 49.5 38.499s34.834 14 51.501 14h27v58h-27c-32 0 -61.333 -10 -88 -30s-47.334 -46.333 -62.001 -79h-2v99h-60v-520h60z" />
    <glyph glyph-name="s" unicode="s" horiz-adv-x="444" 
d="M25 95c24 -35.333 53.167 -61.6699 87.5 -79.0029s72.166 -26 113.499 -26c49.333 0 91.666 13.333 126.999 40s53 62.334 53 107.001c0 26.667 -5 49.334 -15 68.001s-23.5 33.834 -40.5 45.501s-34.667 20.667 -53 27s-41.833 13.833 -70.5 22.5
c-44 12 -76.167 23.833 -96.5 35.5s-30.5 30.167 -30.5 55.5c0 30 9.5 52.667 28.5 68s43.833 23 74.5 23c29.333 0 54.5 -6.5 75.5 -19.5s40.833 -32.5 59.5 -58.5l46 32c-19.333 30.667 -43.333 54 -72 70s-64.334 24 -107.001 24c-47.333 0 -86.666 -12 -117.999 -36
s-47 -59.333 -47 -106c0 -23.333 4.5 -43 13.5 -59s21.167 -29 36.5 -39s31.5 -17.833 48.5 -23.5s39.167 -12.167 66.5 -19.5c23.333 -6.66699 42.5 -12.5 57.5 -17.5s29 -11.333 42 -19s23.167 -17.5 30.5 -29.5s11 -26.667 11 -44c0 -28 -11.167 -51.5 -33.5 -70.5
s-49.833 -28.5 -82.5 -28.5c-35.333 0 -65.166 6.16699 -89.499 18.5s-48.166 35.5 -71.499 69.5z" />
    <glyph glyph-name="t" unicode="t" horiz-adv-x="278" 
d="M10 520l-0.000976562 -48h78v-391c0 -32 8.5 -55.167 25.5 -69.5s46.167 -21.5 87.5 -21.5c9.33301 0 23 1.66699 41 5c9.33301 2 16 3.33301 20 4v50c-23.333 -7.33301 -43.666 -11 -60.999 -11c-35.333 0 -53 17.667 -53 53v381h114v48h-114v170h-60v-170h-78z" />
    <glyph glyph-name="u" unicode="u" 
d="M414 520v-383l-17 -16c-34 -30.667 -60.667 -52.167 -80 -64.5s-42.333 -18.5 -69 -18.5c-38.667 0 -66 11 -82 33s-24 55.333 -24 100v349h-60v-355c0 -58 12.5 -101.667 37.5 -131s63.833 -44 116.5 -44c36 0 67 7.33301 93 22s54.333 38 85 70v-82h60v520h-60z" />
    <glyph glyph-name="v" unicode="v" horiz-adv-x="444" 
d="M192 0h59l179 520h-64l-144 -428h-2l-142 428h-64z" />
    <glyph glyph-name="w" unicode="w" horiz-adv-x="667" 
d="M152 0h62l116 418h2l117 -418h59l151 520h-62l-117 -418h-2l-116 418h-59l-119 -418h-2l-114 418h-61z" />
    <glyph glyph-name="x" unicode="x" horiz-adv-x="444" 
d="M222 219l140 -219h72l-176 276l156 244h-72l-120 -188l-120 188h-72l156 -244l-176 -276h72z" />
    <glyph glyph-name="y" unicode="y" horiz-adv-x="444" 
d="M78 520l-66 0.000976562l181 -512c-13.333 -50 -30.333 -86.5 -51 -109.5s-42.667 -34.5 -66 -34.5c-10 0 -23.667 1.33301 -41 4c-8.66699 1.33301 -15 2.33301 -19 3v-49c14 -4 32.667 -6 56 -6c45.333 0 79.833 11.167 103.5 33.5s44.5 60.166 62.5 113.499l194 557
h-64l-145 -423h-2z" />
    <glyph glyph-name="z" unicode="z" horiz-adv-x="444" 
d="M49 472h276l-300 -434v-38h388v48h-308l300 434v38h-356v-48z" />
    <glyph glyph-name="braceleft" unicode="{" horiz-adv-x="333" 
d="M44 307c22 0 37.5 -6.6709 46.5 -20.0039s13.5 -33.666 13.5 -60.999v-195c0 -36 7.66699 -63.833 23 -83.5s37 -29.5 65 -29.5h62v36h-50c-14 0 -24.167 4.33301 -30.5 13s-9.5 26.334 -9.5 53.001v197c0 32 -6 56.333 -18 73s-30 28 -54 34v2c24 6 42 17.333 54 34
s18 41 18 73v197c0 26.667 3.16699 44.334 9.5 53.001s16.5 13 30.5 13h50v36h-62c-28 0 -49.667 -9.83301 -65 -29.5s-23 -47.5 -23 -83.5v-195c0 -27.333 -4.5 -47.666 -13.5 -60.999s-24.5 -20 -46.5 -20v-36z" />
    <glyph glyph-name="bar" unicode="|" horiz-adv-x="222" 
d="M84 -10h54v742h-54v-742z" />
    <glyph glyph-name="braceright" unicode="}" horiz-adv-x="333" 
d="M289 343c-22 0 -37.5 6.6709 -46.5 20.0039s-13.5 33.666 -13.5 60.999v195c0 36 -7.66699 63.833 -23 83.5s-37 29.5 -65 29.5h-62v-36h50c14 0 24.167 -4.33301 30.5 -13s9.5 -26.334 9.5 -53.001v-197c0 -32 6 -56.333 18 -73s30 -28 54 -34v-2
c-24 -6 -42 -17.333 -54 -34s-18 -41 -18 -73v-197c0 -26.667 -3.16699 -44.334 -9.5 -53.001s-16.5 -13 -30.5 -13h-50v-36h62c28 0 49.667 9.83301 65 29.5s23 47.5 23 83.5v195c0 27.333 4.5 47.666 13.5 60.999s24.5 20 46.5 20v36z" />
    <glyph glyph-name="asciitilde" unicode="~" horiz-adv-x="600" 
d="M511 325c-16 -22.667 -30.999 -40 -44.999 -52s-30.667 -18 -50 -18c-12 0 -25.5 2.5 -40.5 7.5s-34.167 12.167 -57.5 21.5l-13 5c-24 10 -45.667 17.833 -65 23.5s-37.333 8.5 -54 8.5c-32.667 0 -59.834 -7.83301 -81.501 -23.5s-39.5 -35.834 -53.5 -60.501l38 -42
c16 22.667 31 40 45 52s30.667 18 50 18c12 0 25.5 -2.5 40.5 -7.5s34.167 -12.167 57.5 -21.5l13 -5c24 -10 45.667 -17.833 65 -23.5s37.333 -8.5 54 -8.5c33.333 0 60.833 7.83301 82.5 23.5s39.167 35.834 52.5 60.501z" />
    <glyph glyph-name="exclamdown" unicode="&#xa1;" horiz-adv-x="222" 
d="M154 -202l-18 500h-50l-18 -500h86zM68 520v-90h86v90h-86z" />
    <glyph glyph-name="cent" unicode="&#xa2;" 
d="M199 67c-24.667 18 -43.333 43.668 -56 77.001s-19 72 -19 116c0 77.333 14.333 133.666 43 168.999s69 53 121 53c15.333 0 30 -2.66699 44 -8zM376.001 446.001c18 -18 33.665 -41.999 46.998 -71.999l55 15c-17.333 50 -45.333 87.333 -84 112l42 128h-54l-35 -107
c-19.333 5.33301 -39 8 -59 8c-68.667 0 -123.167 -23.167 -163.5 -69.5s-60.5 -113.166 -60.5 -200.499c0 -57.333 10.167 -107.333 30.5 -150s49.5 -74.334 87.5 -95.001l-44 -135h54l38 117c16.667 -4.66699 36 -7 58 -7c46 0 85.333 11.833 118 35.5
s61.334 56.167 86.001 97.5l-48 23c-23.333 -36.667 -46.5 -63.834 -69.5 -81.501s-51.833 -26.5 -86.5 -26.5c-15.333 0 -29.666 2 -42.999 6z" />
    <glyph glyph-name="sterling" unicode="&#xa3;" 
d="M16 -10c22 4 42.334 12.8301 61.001 26.4971s35.667 30.834 51 51.501l7 -5c38.667 -25.333 71.834 -43.833 99.501 -55.5s62.167 -17.5 103.5 -17.5c54 0 97.5 15.333 130.5 46s55.167 74.334 66.5 131.001l-56 12c-13.333 -51.333 -31.5 -86.666 -54.5 -105.999
s-55.167 -29 -96.5 -29c-26 0 -53.333 6.5 -82 19.5s-59 29.833 -91 50.5c13.333 29.333 22.666 56.5 27.999 81.5s8 53.833 8 86.5c0 6.66699 -0.333008 15.667 -1 27c-1.33301 12.667 -2 21.334 -2 26.001h140v48h-146c-10.667 62.667 -16 110.667 -16 144
c0 46.667 11.833 83.5 35.5 110.5s58.834 40.5 105.501 40.5c46 0 81.167 -12.167 105.5 -36.5s41.166 -59.833 50.499 -106.5l58 14c-10 56 -33.833 100.5 -71.5 133.5s-84.834 49.5 -141.501 49.5c-61.333 0 -110.333 -18.333 -147 -55s-55 -85.667 -55 -147
c0 -20.667 2.66699 -51.334 8 -92.001c3.33301 -26 5.33301 -44.333 6 -55h-105v-48h111c0 -2.66699 0.333008 -7.33398 1 -14.001c2.66699 -23.333 4 -40.666 4 -51.999c0 -48.667 -9.16699 -92.5 -27.5 -131.5s-47.5 -67.5 -87.5 -85.5v-62z" />
    <glyph glyph-name="currency" unicode="&#xa4;" 
d="M488 609l-56 -55c-43.333 36.667 -94.666 55 -153.999 55s-110.666 -18.333 -153.999 -55l-56 55l-38 -38l54 -54c-18 -21.333 -31.5 -45.333 -40.5 -72s-13.5 -54.667 -13.5 -84s4.5 -57.333 13.5 -84s22.5 -50.667 40.5 -72l-54 -54l38 -38l56 55
c43.333 -36.667 94.666 -55 153.999 -55s110.666 18.333 153.999 55l56 -55l38 38l-54 54c18 21.333 31.5 45.333 40.5 72s13.5 54.667 13.5 84s-4.5 57.333 -13.5 84s-22.5 50.667 -40.5 72l54 54zM278 161c-26 0 -50.833 5.33105 -74.5 15.998s-44.5 25.334 -62.5 44.001
s-32 40 -42 64s-15 49.333 -15 76s5 52.167 15 76.5s24 45.666 42 63.999s38.833 32.833 62.5 43.5s48.5 16 74.5 16s50.833 -5.33301 74.5 -16s44.5 -25.167 62.5 -43.5s32 -39.666 42 -63.999s15 -49.833 15 -76.5s-5 -52.167 -15 -76.5s-24 -45.666 -42 -63.999
s-38.833 -32.833 -62.5 -43.5s-48.5 -16 -74.5 -16z" />
    <glyph glyph-name="yen" unicode="&#xa5;" 
d="M483 440h-105l150 282h-66l-190 -357l-178 357h-66l145 -282h-108v-48h132l44 -86v-12h-176v-48h176v-246h66v246h176v48h-176v12l46 86h130v48z" />
    <glyph glyph-name="brokenbar" unicode="&#xa6;" horiz-adv-x="222" 
d="M84 -10h54v280h-54v-280zM84 452h54v280h-54v-280z" />
    <glyph glyph-name="section" unicode="&#xa7;" horiz-adv-x="500" 
d="M399 634c-14.667 31.333 -34.668 55.499 -60.001 72.499s-55 25.5 -89 25.5c-38.667 0 -70.334 -10.833 -95.001 -32.5s-37 -49.5 -37 -83.5c0 -24.667 5.83301 -46.834 17.5 -66.501s26.834 -36.167 45.501 -49.5l-2 -2c-33.333 0 -61.166 -9.16699 -83.499 -27.5
s-33.5 -43.166 -33.5 -74.499c0 -27.333 12 -56.166 36 -86.499s59.333 -68.5 106 -114.5c40 -38.667 69.667 -69.834 89 -93.501s29 -44.834 29 -63.501c0 -24.667 -7.83301 -43.167 -23.5 -55.5s-37.5 -18.5 -65.5 -18.5c-23.333 0 -44.5 7.16699 -63.5 21.5
s-32.833 32.5 -41.5 54.5l-42 -27c12 -28 31.667 -50.5 59 -67.5s56.333 -25.5 87 -25.5c38.667 0 71.667 9.33301 99 28s41 46.334 41 83.001c0 22.667 -5 44.667 -15 66s-23.333 41.666 -40 60.999c34 2 60.667 11.5 80 28.5s29 44.833 29 83.5
c0 30.667 -12.667 61.334 -38 92.001s-62 67.334 -110 110.001c-38 34 -65.833 61 -83.5 81s-26.5 38.333 -26.5 55c0 26.667 7 46.667 21 60s32.667 20 56 20c26.667 0 49.167 -6.83301 67.5 -20.5s33.833 -33.167 46.5 -58.5zM177.999 465.999
c14 0 31.998 -8.16699 53.998 -24.5s44.167 -36.5 66.5 -60.5s40.833 -47.333 55.5 -70s22 -39.667 22 -51c0 -20.667 -6.16699 -37.5 -18.5 -50.5s-28.833 -19.5 -49.5 -19.5c-10.667 0 -26.667 8.33301 -48 25s-43.666 37.667 -66.999 63s-42.666 49.833 -57.999 73.5
s-23 41.834 -23 54.501c0 17.333 7 31.666 21 42.999s29 17 45 17z" />
    <glyph glyph-name="dieresis" unicode="&#xa8;" horiz-adv-x="222" 
d="M0 682v-94h66v94h-66zM156 682v-94h66v94h-66z" />
    <glyph glyph-name="copyright" unicode="&#xa9;" horiz-adv-x="800" 
d="M400 732c-50.667 0 -98.5 -9.66602 -143.5 -28.999s-84.667 -46 -119 -80s-61 -73.667 -80 -119s-28.5 -93 -28.5 -143s9.5 -97.667 28.5 -143s45.667 -85 80 -119s74 -60.667 119 -80s92.833 -29 143.5 -29s98.5 9.66699 143.5 29s84.667 46.166 119 80.499
s61 74 80 119s28.5 92.5 28.5 142.5s-9.5 97.667 -28.5 143s-45.667 85 -80 119s-74 60.667 -119 80s-92.833 29 -143.5 29zM400 40.001c-43.333 0 -84.166 8.16699 -122.499 24.5s-71.5 39.166 -99.5 68.499s-49.833 63.666 -65.5 102.999s-23.5 81 -23.5 125
s7.83301 85.667 23.5 125s37.5 73.666 65.5 102.999s61.167 52.166 99.5 68.499s79.166 24.5 122.499 24.5c44 0 85 -8.16699 123 -24.5s71 -39.166 99 -68.499s49.833 -63.666 65.5 -102.999s23.5 -81 23.5 -125s-7.83301 -85.667 -23.5 -125s-37.5 -73.666 -65.5 -102.999
s-61 -52.166 -99 -68.499s-79 -24.5 -123 -24.5zM544 285.001c-6 -31.333 -20.999 -57.334 -44.999 -78.001s-53.333 -31 -88 -31c-24.667 0 -47.167 5 -67.5 15s-37.833 23.833 -52.5 41.5s-25.834 37.834 -33.501 60.501s-11.5 46 -11.5 70
c0 52.667 14.5 96.334 43.5 131.001s68.833 52 119.5 52c35.333 0 65 -10 89 -30s39.333 -45 46 -75h54c-6 48.667 -26.667 86.667 -62 114s-78 41 -128 41c-68 0 -122 -21.833 -162 -65.5s-60 -99.834 -60 -168.501c0 -33.333 5.33301 -64.333 16 -93
s25.834 -53.667 45.501 -75s43.5 -38 71.5 -50s58.667 -18 92 -18c46.667 0 86.667 14.5 120 43.5s55.666 67.5 66.999 115.5h-54z" />
    <glyph glyph-name="ordfeminine" unicode="&#xaa;" horiz-adv-x="300" 
d="M59 643c12.667 17.333 26.165 29.835 40.498 37.502s31.833 11.5 52.5 11.5c23.333 0 39.833 -3.83301 49.5 -11.5s14.5 -18.5 14.5 -32.5v-25c-8.66699 -2.66699 -22 -6 -40 -10c-24 -4.66699 -44.5 -9.5 -61.5 -14.5s-33.333 -12 -49 -21s-28.5 -20.5 -38.5 -34.5
s-15 -31.333 -15 -52c0 -24.667 8.83301 -44.334 26.5 -59.001s40.167 -22 67.5 -22c24.667 0 45.834 3.33301 63.501 10s35.5 18 53.5 34l5 -38h44c-2 12 -3.5 22.167 -4.5 30.5s-1.5 19.5 -1.5 33.5v156c0 34 -8.66699 58.5 -26 73.5s-45 22.5 -83 22.5
c-30.667 0 -56.167 -5.33301 -76.5 -16s-38.166 -28.334 -53.499 -53.001zM215.998 496.002c-10.667 -13.333 -26 -24.334 -46 -33.001s-39.333 -13 -58 -13c-15.333 0 -27.5 4 -36.5 12s-13.5 18 -13.5 30c0 11.333 3.83301 21.5 11.5 30.5s17.5 16.5 29.5 22.5
s23.833 10.833 35.5 14.5s27.5 7.83398 47.5 12.501c15.333 4 25.333 6.66699 30 8v-84z" />
    <glyph glyph-name="guillemotleft" unicode="&#xab;" horiz-adv-x="500" 
d="M418 414h-66l-122 -152l122 -156h66l-125 156zM269 414h-66l-121 -152l121 -156h66l-124 156z" />
    <glyph glyph-name="logicalnot" unicode="&#xac;" horiz-adv-x="600" 
d="M506 133h54v254h-520v-54h466v-200z" />
    <glyph glyph-name="minus" unicode="&#xad;" horiz-adv-x="600" 
d="M560 233v54h-520v-54h520z" />
    <glyph glyph-name="minus" unicode="&#x2212;" horiz-adv-x="600" 
d="M560 233v54h-520v-54h520z" />
    <glyph glyph-name="registered" unicode="&#xae;" horiz-adv-x="800" 
d="M322 336l85.001 -0.000976562l120 -196h68l-123 196c29.333 6.66699 53.666 19.834 72.999 39.501s29 47.5 29 83.5c0 40 -11.667 70.333 -35 91s-59.333 31 -108 31h-169v-441h60v196zM322.001 385.999l-0.000976562 145.001h96c28.667 0 50.334 -4 65.001 -12
c10 -5.33301 17.667 -12.833 23 -22.5s8 -21.834 8 -36.501c0 -17.333 -3.16699 -31 -9.5 -41s-15 -17.333 -26 -22s-23.167 -7.66699 -36.5 -9s-30.333 -2 -51 -2h-69zM400 732c-50.667 0 -98.5 -9.66602 -143.5 -28.999s-84.667 -46 -119 -80s-61 -73.667 -80 -119
s-28.5 -93 -28.5 -143s9.5 -97.667 28.5 -143s45.667 -85 80 -119s74 -60.667 119 -80s92.833 -29 143.5 -29s98.5 9.66699 143.5 29s84.667 46.166 119 80.499s61 74 80 119s28.5 92.5 28.5 142.5s-9.5 97.667 -28.5 143s-45.667 85 -80 119s-74 60.667 -119 80
s-92.833 29 -143.5 29zM400 40.001c-43.333 0 -84.166 8.16699 -122.499 24.5s-71.5 39.166 -99.5 68.499s-49.833 63.666 -65.5 102.999s-23.5 81 -23.5 125s7.83301 85.667 23.5 125s37.5 73.666 65.5 102.999s61.167 52.166 99.5 68.499s79.166 24.5 122.499 24.5
c44 0 85 -8.16699 123 -24.5s71 -39.166 99 -68.499s49.833 -63.666 65.5 -102.999s23.5 -81 23.5 -125s-7.83301 -85.667 -23.5 -125s-37.5 -73.666 -65.5 -102.999s-61 -52.166 -99 -68.499s-79 -24.5 -123 -24.5z" />
    <glyph glyph-name="macron" unicode="&#xaf;" horiz-adv-x="222" 
d="M-37 617h296v44h-296v-44z" />
    <glyph glyph-name="degree" unicode="&#xb0;" horiz-adv-x="400" 
d="M200 690c29.333 0 53.333 -9.83301 72 -29.5s28 -44.5 28 -74.5s-9.33301 -54.833 -28 -74.5s-42.667 -29.5 -72 -29.5s-53.333 9.83301 -72 29.5s-28 44.5 -28 74.5s9.33301 54.833 28 74.5s42.667 29.5 72 29.5zM200 732c-40.667 0 -75.167 -14.167 -103.5 -42.5
s-42.5 -62.833 -42.5 -103.5s14.167 -75.167 42.5 -103.5s62.833 -42.5 103.5 -42.5c41.333 0 76 14.167 104 42.5s42 62.833 42 103.5s-14 75.167 -42 103.5s-62.667 42.5 -104 42.5z" />
    <glyph glyph-name="plusminus" unicode="&#xb1;" horiz-adv-x="600" 
d="M273 335h-233v-54h233v-185h54v185h233v54h-233v185h-54v-185zM40 0h520v54h-520v-54z" />
    <glyph glyph-name="twosuperior" unicode="&#xb2;" horiz-adv-x="333" 
d="M69 601c13.333 58 50.668 86.998 112.001 86.998c25.333 0 45.333 -7.5 60 -22.5s22 -34.833 22 -59.5c0 -10.667 -1.66699 -20.5 -5 -29.5s-9.33301 -18.667 -18 -29s-21 -21.833 -37 -34.5s-37.333 -27.667 -64 -45c-26.667 -18.667 -48.334 -35.167 -65.001 -49.5
s-29.167 -26.666 -37.5 -36.999s-13.833 -19.833 -16.5 -28.5s-4 -18 -4 -28v-33h298v44h-246c0.666992 10.667 7.66699 22 21 34s38 31.667 74 59l13 9c8.66699 6.66699 20.667 15.334 36 26.001c34.667 24 60.5 45.5 77.5 64.5s25.5 43.5 25.5 73.5
c0 40.667 -12.333 72.5 -37 95.5s-57.667 34.5 -99 34.5s-75.833 -11 -103.5 -33s-45.167 -52.333 -52.5 -91z" />
    <glyph glyph-name="threesuperior" unicode="&#xb3;" horiz-adv-x="333" 
d="M2 372c26.667 -57.333 79.3311 -85.9971 157.998 -85.9971c49.333 0 88.5 10.5 117.5 31.5s43.5 53.167 43.5 96.5c0 29.333 -6.66699 52.666 -20 69.999s-33.666 30.666 -60.999 39.999c26 10.667 43.5 23.667 52.5 39s13.5 36.333 13.5 63c0 34 -14 60.167 -42 78.5
s-61 27.5 -99 27.5c-30.667 0 -57 -5.33301 -79 -16s-42.333 -29 -61 -55l36 -23c15.333 20.667 30.5 34.167 45.5 40.5s35.833 9.5 62.5 9.5c24 0 44.167 -5.83301 60.5 -17.5s24.5 -27.834 24.5 -48.501c0 -27.333 -10.167 -47.166 -30.5 -59.499
s-49.833 -18.5 -88.5 -18.5h-35v-44h43c40.667 0 71.834 -7 93.501 -21s32.5 -36 32.5 -66c0 -26 -9.16699 -46.333 -27.5 -61s-44.833 -22 -79.5 -22c-30.667 0 -54.667 4.66699 -72 14s-33 26.666 -47 51.999z" />
    <glyph glyph-name="acute" unicode="&#xb4;" horiz-adv-x="222" 
d="M159 716l-111 -138h51l137 138h-77z" />
    <glyph glyph-name="mu" unicode="&#xb5;" 
d="M414 520l0.000976562 -383l-17 -16c-34 -30.667 -60.667 -52.167 -80 -64.5s-42.333 -18.5 -69 -18.5c-38.667 0 -66 11 -82 33s-24 55.333 -24 100v349h-60v-704h60v198c23.333 -16 54.666 -24 93.999 -24c36 0 67 7.33301 93 22s54.333 38 85 70v-82h60v520h-60z" />
    <glyph glyph-name="paragraph" unicode="&#xb6;" horiz-adv-x="500" 
d="M223 -80l49.999 -0.00195312v758h105v-758h50v758h74v44h-263c-70 0 -124.667 -17 -164 -51s-59 -82.333 -59 -145c0 -25.333 5.33301 -49.666 16 -72.999s25.334 -43.666 44.001 -60.999s40.667 -31 66 -41s52.333 -15 81 -15v-416z" />
    <glyph glyph-name="periodcentered" unicode="&#xb7;" horiz-adv-x="278" 
d="M139 310c-13.333 0 -25 -4.83301 -35 -14.5s-15 -21.5 -15 -35.5s5 -25.833 15 -35.5s21.667 -14.5 35 -14.5s25 4.83301 35 14.5s15 21.5 15 35.5s-5 25.833 -15 35.5s-21.667 14.5 -35 14.5z" />
    <glyph glyph-name="periodcentered" unicode="&#x2219;" horiz-adv-x="278" 
d="M139 310c-13.333 0 -25 -4.83301 -35 -14.5s-15 -21.5 -15 -35.5s5 -25.833 15 -35.5s21.667 -14.5 35 -14.5s25 4.83301 35 14.5s15 21.5 15 35.5s-5 25.833 -15 35.5s-21.667 14.5 -35 14.5z" />
    <glyph glyph-name="cedilla" unicode="&#xb8;" horiz-adv-x="222" 
d="M0 -188c26 -13.333 58.001 -20.002 96.001 -20.002c25.333 0 49.166 6.83301 71.499 20.5s33.5 32.834 33.5 57.501c0 26 -7 46.5 -21 61.5s-33 22.5 -57 22.5c-12.667 0 -23 -2 -31 -6l-2 2l43 50h-38l-60 -82l15 -13c13.333 6 28 9 44 9c12 0 22.5 -3.5 31.5 -10.5
s13.5 -17.167 13.5 -30.5c0 -27.333 -22 -41 -66 -41c-7.33301 0 -15.5 1.33301 -24.5 4s-19.833 6.33398 -32.5 11.001l-2 1z" />
    <glyph glyph-name="onesuperior" unicode="&#xb9;" horiz-adv-x="333" 
d="M275 292v44h-77v396h-41l-93 -33v-37l82 20v-346h-73v-44h202z" />
    <glyph glyph-name="ordmasculine" unicode="&#xba;" horiz-adv-x="300" 
d="M66 571c0 38.667 6.33301 67.5 19 86.5s34.334 28.5 65.001 28.5c30 0 51.333 -9.5 64 -28.5s19 -47.833 19 -86.5c0 -39.333 -6.16699 -68.333 -18.5 -87s-33.833 -28 -64.5 -28s-52.334 9.33301 -65.001 28s-19 47.667 -19 87zM150 732
c-25.333 0 -47.166 -4.16797 -65.499 -12.501s-33 -20 -44 -35s-18.833 -32.167 -23.5 -51.5s-7 -40 -7 -62s2.33301 -42.5 7 -61.5s12.5 -36 23.5 -51s25.667 -26.833 44 -35.5s40.166 -13 65.499 -13s47 4.33301 65 13s32.333 20.334 43 35.001s18.5 31.667 23.5 51
s7.5 40 7.5 62s-2.5 42.667 -7.5 62s-12.833 36.5 -23.5 51.5s-25 26.667 -43 35s-39.667 12.5 -65 12.5z" />
    <glyph glyph-name="guillemotright" unicode="&#xbb;" horiz-adv-x="500" 
d="M82 106h66l122 152l-122 156h-66l125 -156zM231 106h66l121 152l-121 156h-66l124 -156z" />
    <glyph glyph-name="onequarter" unicode="&#xbc;" horiz-adv-x="834" 
d="M669 374h4v-226h-155zM462 104h211v-104h52v104h71v44h-71v286h-67l-196 -282v-48zM299 292v44h-77v396h-41l-93 -33v-37l82 20v-346h-73v-44h202zM181 -10h59l442 742h-57z" />
    <glyph glyph-name="onehalf" unicode="&#xbd;" horiz-adv-x="834" 
d="M299 292v44h-77v396h-41l-93 -33v-37l82 20v-346h-73v-44h202zM545 309c13.333 58 50.668 86.998 112.001 86.998c25.333 0 45.333 -7.5 60 -22.5s22 -34.833 22 -59.5c0 -10.667 -1.66699 -20.5 -5 -29.5s-9.33301 -18.667 -18 -29s-21 -21.833 -37 -34.5
s-37.333 -27.667 -64 -45c-26.667 -18.667 -48.334 -35.167 -65.001 -49.5s-29.167 -26.666 -37.5 -36.999s-13.833 -19.833 -16.5 -28.5s-4 -18 -4 -28v-33h298v44h-246c0.666992 10.667 7.66699 22 21 34s38 31.667 74 59l13 9c8.66699 6.66699 20.667 15.334 36 26.001
c34.667 24 60.5 45.5 77.5 64.5s25.5 43.5 25.5 73.5c0 40.667 -12.333 72.5 -37 95.5s-57.667 34.5 -99 34.5s-75.833 -11 -103.5 -33s-45.167 -52.333 -52.5 -91zM169.002 -10.002h59l442 742h-57z" />
    <glyph glyph-name="threequarters" unicode="&#xbe;" horiz-adv-x="834" 
d="M669 374h4v-226h-155zM462 104h211v-104h52v104h71v44h-71v286h-67l-196 -282v-48zM30 372c26.667 -57.333 79.3311 -85.9971 157.998 -85.9971c49.333 0 88.5 10.5 117.5 31.5s43.5 53.167 43.5 96.5c0 29.333 -6.66699 52.666 -20 69.999
s-33.666 30.666 -60.999 39.999c26 10.667 43.5 23.667 52.5 39s13.5 36.333 13.5 63c0 34 -14 60.167 -42 78.5s-61 27.5 -99 27.5c-30.667 0 -57 -5.33301 -79 -16s-42.333 -29 -61 -55l36 -23c15.333 20.667 30.5 34.167 45.5 40.5s35.833 9.5 62.5 9.5
c24 0 44.167 -5.83301 60.5 -17.5s24.5 -27.834 24.5 -48.501c0 -27.333 -10.167 -47.166 -30.5 -59.499s-49.833 -18.5 -88.5 -18.5h-35v-44h43c40.667 0 71.834 -7 93.501 -21s32.5 -36 32.5 -66c0 -26 -9.16699 -46.333 -27.5 -61s-44.833 -22 -79.5 -22
c-30.667 0 -54.667 4.66699 -72 14s-33 26.666 -47 51.999zM196.997 -9.99707h59l442 742h-57z" />
    <glyph glyph-name="questiondown" unicode="&#xbf;" horiz-adv-x="389" 
d="M310 -64c-10 -26 -24 -48.1689 -42 -66.502s-42 -27.5 -72 -27.5c-28.667 0 -52.5 8.5 -71.5 25.5s-28.5 40.5 -28.5 70.5c0 28.667 7.16699 54.5 21.5 77.5s35.5 50.167 63.5 81.5c24.667 27.333 43 50.5 55 69.5s18 39.5 18 61.5v72h-54v-48
c0 -27.333 -6.83301 -51.333 -20.5 -72s-34.5 -45 -62.5 -73c-28.667 -29.333 -50.334 -55.166 -65.001 -77.499s-22 -48.5 -22 -78.5c0 -51.333 16 -91.333 48 -120s71 -43 117 -43c40.667 0 74.834 10.833 102.501 32.5s48.5 51.834 62.5 90.501zM187 519.998v-90h86v90
h-86z" />
    <glyph glyph-name="Agrave" unicode="&#xc0;" horiz-adv-x="611" 
d="M178 891l137 -138h51l-111 138h-77zM186 290l119 378h2l120 -378h-241zM25 0h70l74 236h273l73 -236h70l-228 722h-101z" />
    <glyph glyph-name="Aacute" unicode="&#xc1;" horiz-adv-x="611" 
d="M351 891l-111 -138h51l137 138h-77zM186 290l119 378h2l120 -378h-241zM25 0h70l74 236h273l73 -236h70l-228 722h-101z" />
    <glyph glyph-name="Acircumflex" unicode="&#xc2;" horiz-adv-x="611" 
d="M337 891h-68l-114 -138h66l82 101l82 -101h66zM186 290l119 378h2l120 -378h-241zM25 0h70l74 236h273l73 -236h70l-228 722h-101z" />
    <glyph glyph-name="Atilde" unicode="&#xc3;" horiz-adv-x="611" 
d="M184 764c2 14 7.00293 25.835 15.0029 35.502s18.667 14.5 32 14.5c12 0 33.333 -6.66699 64 -20l4 -2c0.666992 -0.666992 2 -1.33398 4 -2.00098c16 -6.66699 29.167 -11.834 39.5 -15.501s19.833 -5.5 28.5 -5.5c27.333 0 47.666 8.83301 60.999 26.5
s22.666 41.167 27.999 70.5h-38c-2 -13.333 -6.83301 -24.833 -14.5 -34.5s-17.834 -14.5 -30.501 -14.5s-33.667 6.33301 -63 19l-6 3c-32 14.667 -56.667 22 -74 22c-24 0 -44.167 -10 -60.5 -30s-25.5 -42.333 -27.5 -67h38zM186.003 290.002l119 378h2l120 -378h-241z
M25.0029 0.00195312h70l74 236h273l73 -236h70l-228 722h-101z" />
    <glyph glyph-name="Adieresis" unicode="&#xc4;" horiz-adv-x="611" 
d="M192 857v-94h66v94h-66zM348 857v-94h66v94h-66zM186 290l119 378h2l120 -378h-241zM25 0h70l74 236h273l73 -236h70l-228 722h-101z" />
    <glyph glyph-name="Aring" unicode="&#xc5;" horiz-adv-x="611" 
d="M303 949c-27.333 0 -50.833 -9.66699 -70.5 -29s-29.5 -43 -29.5 -71c0 -27.333 9.83301 -50.833 29.5 -70.5s43.167 -29.5 70.5 -29.5s50.833 9.83301 70.5 29.5s29.5 43.167 29.5 70.5c0 28 -9.83301 51.667 -29.5 71s-43.167 29 -70.5 29zM303 915
c18 0 33.5 -6.33301 46.5 -19s19.5 -28.334 19.5 -47.001s-6.5 -34.334 -19.5 -47.001s-28.5 -19 -46.5 -19s-33.5 6.33301 -46.5 19s-19.5 28.334 -19.5 47.001s6.5 34.334 19.5 47.001s28.5 19 46.5 19zM186 290l119 378h2l120 -378h-241zM25 0h70l74 236h273l73 -236h70
l-228 722h-101z" />
    <glyph glyph-name="AE" unicode="&#xc6;" horiz-adv-x="944" 
d="M250 290l212 376h17v-376h-229zM18 0h74l126 236h261v-236h425v54h-359v294h243v54h-243v266h340v54h-465z" />
    <glyph glyph-name="Ccedilla" unicode="&#xc7;" horiz-adv-x="611" 
d="M202 -188c26 -13.333 58.001 -20.002 96.001 -20.002c25.333 0 49.166 6.83301 71.499 20.5s33.5 32.834 33.5 57.501c0 26 -7 46.5 -21 61.5s-33 22.5 -57 22.5c-12.667 0 -23 -2 -31 -6l-2 2l43 50h-38l-60 -82l15 -13c13.333 6 28 9 44 9c12 0 22.5 -3.5 31.5 -10.5
s13.5 -17.167 13.5 -30.5c0 -27.333 -22 -41 -66 -41c-7.33301 0 -15.5 1.33301 -24.5 4s-19.833 6.33398 -32.5 11.001l-2 1zM557.001 522.998c-16.667 64 -44.001 114.836 -82.001 152.503s-87.667 56.5 -149 56.5c-43.333 0 -82.166 -8.83301 -116.499 -26.5
s-63.5 -42.834 -87.5 -75.501s-42.333 -71.667 -55 -117s-19 -96 -19 -152c0 -55.333 6.33301 -105.833 19 -151.5s31 -84.834 55 -117.501s53.167 -57.834 87.5 -75.501s73.166 -26.5 116.499 -26.5c71.333 0 126.333 19.167 165 57.5s65.334 92.166 80.001 161.499l-62 11
c-6.66699 -26 -14.5 -49.167 -23.5 -69.5s-20.333 -38.5 -34 -54.5s-30.834 -28.667 -51.501 -38s-45 -14 -73 -14c-36.667 0 -68.5 8 -95.5 24s-49.167 38.333 -66.5 67s-30.166 62.167 -38.499 100.5s-12.5 80.166 -12.5 125.499c0 44.667 4.16699 86.334 12.5 125.001
s21 72.334 38 101.001s38.5 51 64.5 67s56.333 24 91 24c42.667 0 78.667 -14.5 108 -43.5s52 -70.5 68 -124.5z" />
    <glyph glyph-name="Egrave" unicode="&#xc8;" 
d="M183 891l137 -138h51l-111 138h-77zM531 0v54h-365v294h249v54h-249v266h346v54h-412v-722h431z" />
    <glyph glyph-name="Eacute" unicode="&#xc9;" 
d="M356 891l-111 -138h51l137 138h-77zM531 0v54h-365v294h249v54h-249v266h346v54h-412v-722h431z" />
    <glyph glyph-name="Ecircumflex" unicode="&#xca;" 
d="M342 891h-68l-114 -138h66l82 101l82 -101h66zM531 0v54h-365v294h249v54h-249v266h346v54h-412v-722h431z" />
    <glyph glyph-name="Edieresis" unicode="&#xcb;" 
d="M197 857v-94h66v94h-66zM353 857v-94h66v94h-66zM531 0v54h-365v294h249v54h-249v266h346v54h-412v-722h431z" />
    <glyph glyph-name="Igrave" unicode="&#xcc;" horiz-adv-x="278" 
d="M7 891l137 -138h51l-111 138h-77zM106 0h66v722h-66v-722z" />
    <glyph glyph-name="Iacute" unicode="&#xcd;" horiz-adv-x="278" 
d="M180 891l-111 -138h51l137 138h-77zM106 0h66v722h-66v-722z" />
    <glyph glyph-name="Icircumflex" unicode="&#xce;" horiz-adv-x="278" 
d="M166 891h-68l-114 -138h66l82 101l82 -101h66zM106 0h66v722h-66v-722z" />
    <glyph glyph-name="Idieresis" unicode="&#xcf;" horiz-adv-x="278" 
d="M21 857v-94h66v94h-66zM177 857v-94h66v94h-66zM106 0h66v722h-66v-722z" />
    <glyph glyph-name="Eth" unicode="&#xd0;" horiz-adv-x="667" 
d="M166 402v266h140c79.333 0 140.166 -26.667 182.499 -80s63.5 -129 63.5 -227s-21.167 -173.667 -63.5 -227s-103.166 -80 -182.499 -80h-140v294h196v54h-196zM10 402v-54h90v-348h204c54 0 101.167 9.5 141.5 28.5s73.166 45 98.499 78s44 71.333 56 115
s18 90.167 18 139.5s-6 95.833 -18 139.5s-30.667 82 -56 115s-58.166 59 -98.499 78s-87.5 28.5 -141.5 28.5h-204v-320h-90z" />
    <glyph glyph-name="Ntilde" unicode="&#xd1;" horiz-adv-x="722" 
d="M242 764c2 14 7.00293 25.835 15.0029 35.502s18.667 14.5 32 14.5c12 0 33.333 -6.66699 64 -20l4 -2c0.666992 -0.666992 2 -1.33398 4 -2.00098c16 -6.66699 29.167 -11.834 39.5 -15.501s19.833 -5.5 28.5 -5.5c27.333 0 47.666 8.83301 60.999 26.5
s22.666 41.167 27.999 70.5h-38c-2 -13.333 -6.83301 -24.833 -14.5 -34.5s-17.834 -14.5 -30.501 -14.5s-33.667 6.33301 -63 19l-6 3c-32 14.667 -56.667 22 -74 22c-24 0 -44.167 -10 -60.5 -30s-25.5 -42.333 -27.5 -67h38zM100.003 0.00195312h66v668h2l386 -668h68
v722h-66v-602h-2l-343 602h-111v-722z" />
    <glyph glyph-name="Ograve" unicode="&#xd2;" horiz-adv-x="667" 
d="M209 891l137 -138h51l-111 138h-77zM333 732c-44 0 -83.833 -9.16699 -119.5 -27.5s-65.834 -44.166 -90.501 -77.499s-43.334 -72.666 -56.001 -117.999s-19 -94.666 -19 -147.999s6.33301 -102.666 19 -147.999s31.334 -84.666 56.001 -117.999
s54.834 -59.166 90.501 -77.499s75.5 -27.5 119.5 -27.5s83.833 9.16699 119.5 27.5s65.834 44.166 90.501 77.499s43.334 72.666 56.001 117.999s19 94.666 19 147.999s-6.33301 102.666 -19 147.999s-31.334 84.666 -56.001 117.999s-54.834 59.166 -90.501 77.499
s-75.5 27.5 -119.5 27.5zM333 44c-67.333 0 -120.666 27.833 -159.999 83.5s-59 133.5 -59 233.5s19.667 177.833 59 233.5s92.666 83.5 159.999 83.5s120.666 -27.833 159.999 -83.5s59 -133.5 59 -233.5s-19.667 -177.833 -59 -233.5s-92.666 -83.5 -159.999 -83.5z" />
    <glyph glyph-name="Oacute" unicode="&#xd3;" horiz-adv-x="667" 
d="M382 891l-111 -138h51l137 138h-77zM333 732c-44 0 -83.833 -9.16699 -119.5 -27.5s-65.834 -44.166 -90.501 -77.499s-43.334 -72.666 -56.001 -117.999s-19 -94.666 -19 -147.999s6.33301 -102.666 19 -147.999s31.334 -84.666 56.001 -117.999
s54.834 -59.166 90.501 -77.499s75.5 -27.5 119.5 -27.5s83.833 9.16699 119.5 27.5s65.834 44.166 90.501 77.499s43.334 72.666 56.001 117.999s19 94.666 19 147.999s-6.33301 102.666 -19 147.999s-31.334 84.666 -56.001 117.999s-54.834 59.166 -90.501 77.499
s-75.5 27.5 -119.5 27.5zM333 44c-67.333 0 -120.666 27.833 -159.999 83.5s-59 133.5 -59 233.5s19.667 177.833 59 233.5s92.666 83.5 159.999 83.5s120.666 -27.833 159.999 -83.5s59 -133.5 59 -233.5s-19.667 -177.833 -59 -233.5s-92.666 -83.5 -159.999 -83.5z" />
    <glyph glyph-name="Ocircumflex" unicode="&#xd4;" horiz-adv-x="667" 
d="M368 891h-68l-114 -138h66l82 101l82 -101h66zM333 732c-44 0 -83.833 -9.16699 -119.5 -27.5s-65.834 -44.166 -90.501 -77.499s-43.334 -72.666 -56.001 -117.999s-19 -94.666 -19 -147.999s6.33301 -102.666 19 -147.999s31.334 -84.666 56.001 -117.999
s54.834 -59.166 90.501 -77.499s75.5 -27.5 119.5 -27.5s83.833 9.16699 119.5 27.5s65.834 44.166 90.501 77.499s43.334 72.666 56.001 117.999s19 94.666 19 147.999s-6.33301 102.666 -19 147.999s-31.334 84.666 -56.001 117.999s-54.834 59.166 -90.501 77.499
s-75.5 27.5 -119.5 27.5zM333 44c-67.333 0 -120.666 27.833 -159.999 83.5s-59 133.5 -59 233.5s19.667 177.833 59 233.5s92.666 83.5 159.999 83.5s120.666 -27.833 159.999 -83.5s59 -133.5 59 -233.5s-19.667 -177.833 -59 -233.5s-92.666 -83.5 -159.999 -83.5z" />
    <glyph glyph-name="Otilde" unicode="&#xd5;" horiz-adv-x="667" 
d="M215 764c2 14 7.00293 25.835 15.0029 35.502s18.667 14.5 32 14.5c12 0 33.333 -6.66699 64 -20l4 -2c0.666992 -0.666992 2 -1.33398 4 -2.00098c16 -6.66699 29.167 -11.834 39.5 -15.501s19.833 -5.5 28.5 -5.5c27.333 0 47.666 8.83301 60.999 26.5
s22.666 41.167 27.999 70.5h-38c-2 -13.333 -6.83301 -24.833 -14.5 -34.5s-17.834 -14.5 -30.501 -14.5s-33.667 6.33301 -63 19l-6 3c-32 14.667 -56.667 22 -74 22c-24 0 -44.167 -10 -60.5 -30s-25.5 -42.333 -27.5 -67h38zM333.003 732.002
c-44 0 -83.833 -9.16699 -119.5 -27.5s-65.834 -44.166 -90.501 -77.499s-43.334 -72.666 -56.001 -117.999s-19 -94.666 -19 -147.999s6.33301 -102.666 19 -147.999s31.334 -84.666 56.001 -117.999s54.834 -59.166 90.501 -77.499s75.5 -27.5 119.5 -27.5
s83.833 9.16699 119.5 27.5s65.834 44.166 90.501 77.499s43.334 72.666 56.001 117.999s19 94.666 19 147.999s-6.33301 102.666 -19 147.999s-31.334 84.666 -56.001 117.999s-54.834 59.166 -90.501 77.499s-75.5 27.5 -119.5 27.5zM333.003 44.002
c-67.333 0 -120.666 27.833 -159.999 83.5s-59 133.5 -59 233.5s19.667 177.833 59 233.5s92.666 83.5 159.999 83.5s120.666 -27.833 159.999 -83.5s59 -133.5 59 -233.5s-19.667 -177.833 -59 -233.5s-92.666 -83.5 -159.999 -83.5z" />
    <glyph glyph-name="Odieresis" unicode="&#xd6;" horiz-adv-x="667" 
d="M223 857v-94h66v94h-66zM379 857v-94h66v94h-66zM333 732c-44 0 -83.833 -9.16699 -119.5 -27.5s-65.834 -44.166 -90.501 -77.499s-43.334 -72.666 -56.001 -117.999s-19 -94.666 -19 -147.999s6.33301 -102.666 19 -147.999s31.334 -84.666 56.001 -117.999
s54.834 -59.166 90.501 -77.499s75.5 -27.5 119.5 -27.5s83.833 9.16699 119.5 27.5s65.834 44.166 90.501 77.499s43.334 72.666 56.001 117.999s19 94.666 19 147.999s-6.33301 102.666 -19 147.999s-31.334 84.666 -56.001 117.999s-54.834 59.166 -90.501 77.499
s-75.5 27.5 -119.5 27.5zM333 44c-67.333 0 -120.666 27.833 -159.999 83.5s-59 133.5 -59 233.5s19.667 177.833 59 233.5s92.666 83.5 159.999 83.5s120.666 -27.833 159.999 -83.5s59 -133.5 59 -233.5s-19.667 -177.833 -59 -233.5s-92.666 -83.5 -159.999 -83.5z" />
    <glyph glyph-name="multiply" unicode="&#xd7;" horiz-adv-x="600" 
d="M560 482l-38 38l-222 -222l-222 222l-38 -38l222 -222l-222 -222l38 -38l222 222l222 -222l38 38l-222 222z" />
    <glyph glyph-name="Oslash" unicode="&#xd8;" horiz-adv-x="667" 
d="M503 577c32.667 -52 48.999 -124 48.999 -216c0 -100 -19.667 -177.833 -59 -233.5s-92.666 -83.5 -159.999 -83.5c-55.333 0 -100.333 18.333 -135 55zM162.999 144c-32.667 54 -48.998 126.333 -48.998 217c0 100 19.667 177.833 59 233.5s92.666 83.5 159.999 83.5
c55.333 0 100.666 -18.667 135.999 -56zM626.001 770l-63.001 -0.00292969l-62 -98c-46 40 -102 60 -168 60c-44 0 -83.833 -9.16699 -119.5 -27.5s-65.834 -44.166 -90.501 -77.499s-43.334 -72.666 -56.001 -117.999s-19 -94.666 -19 -147.999
c0 -55.333 6.83301 -106.166 20.5 -152.499s33.5 -86.166 59.5 -119.499l-87 -137h63l62 97c46.667 -39.333 102.334 -59 167.001 -59c44 0 83.833 9.16699 119.5 27.5s65.834 44.166 90.501 77.499s43.334 72.666 56.001 117.999s19 94.666 19 147.999
c0 55.333 -6.83301 106.333 -20.5 153s-33.5 86.334 -59.5 119.001z" />
    <glyph glyph-name="Ugrave" unicode="&#xd9;" horiz-adv-x="722" 
d="M231 891l137 -138h51l-111 138h-77zM100 722v-486c0 -164 87 -246 261 -246s261 82 261 246v486h-66v-492c0 -67.333 -16 -115.166 -48 -143.499s-81 -42.5 -147 -42.5s-115 14.167 -147 42.5s-48 76.166 -48 143.499v492h-66z" />
    <glyph glyph-name="Uacute" unicode="&#xda;" horiz-adv-x="722" 
d="M404 891l-111 -138h51l137 138h-77zM100 722v-486c0 -164 87 -246 261 -246s261 82 261 246v486h-66v-492c0 -67.333 -16 -115.166 -48 -143.499s-81 -42.5 -147 -42.5s-115 14.167 -147 42.5s-48 76.166 -48 143.499v492h-66z" />
    <glyph glyph-name="Ucircumflex" unicode="&#xdb;" horiz-adv-x="722" 
d="M390 891h-68l-114 -138h66l82 101l82 -101h66zM100 722v-486c0 -164 87 -246 261 -246s261 82 261 246v486h-66v-492c0 -67.333 -16 -115.166 -48 -143.499s-81 -42.5 -147 -42.5s-115 14.167 -147 42.5s-48 76.166 -48 143.499v492h-66z" />
    <glyph glyph-name="Udieresis" unicode="&#xdc;" horiz-adv-x="722" 
d="M245 857v-94h66v94h-66zM401 857v-94h66v94h-66zM100 722v-486c0 -164 87 -246 261 -246s261 82 261 246v486h-66v-492c0 -67.333 -16 -115.166 -48 -143.499s-81 -42.5 -147 -42.5s-115 14.167 -147 42.5s-48 76.166 -48 143.499v492h-66z" />
    <glyph glyph-name="Yacute" unicode="&#xdd;" 
d="M326 891l-111 -138h51l137 138h-77zM241 0h66v306l229 416h-74l-190 -357l-178 357h-74l221 -416v-306z" />
    <glyph glyph-name="Thorn" unicode="&#xde;" horiz-adv-x="611" 
d="M166 170l152 0.00195312c83.333 0 144.833 17.667 184.5 53s59.5 84.666 59.5 147.999s-19.833 112.666 -59.5 147.999s-101.167 53 -184.5 53h-152v150h-66v-722h66v170zM166 518.002l152 0.00195312c61.333 0 106.333 -12.333 135 -37s43 -61.334 43 -110.001
s-14.333 -85.334 -43 -110.001s-73.667 -37 -135 -37h-152v294z" />
    <glyph glyph-name="germandbls" unicode="&#xdf;" horiz-adv-x="500" 
d="M136 0l-0.00292969 536.001c0 18 1.83301 35.167 5.5 51.5s9.5 31 17.5 44s19 23.333 33 31s31 11.5 51 11.5c40 0 70.167 -11.167 90.5 -33.5s30.5 -53.833 30.5 -94.5c0 -47.333 -11.5 -81.833 -34.5 -103.5s-57.167 -33.167 -102.5 -34.5v-48
c61.333 0 107 -13 137 -39s45 -68.333 45 -127c0 -48.667 -9.5 -86.834 -28.5 -114.501s-45.5 -41.5 -79.5 -41.5c-11.333 0 -23.666 1.83301 -36.999 5.5s-25.666 8.5 -36.999 14.5l-21 -45c12 -6.66699 26.667 -12.167 44 -16.5s33.333 -6.5 48 -6.5
c54.667 0 96.834 18.833 126.501 56.5s44.5 89.167 44.5 154.5c0 47.333 -11.667 87.833 -35 121.5s-57.333 57.5 -102 71.5c30 14.667 52.833 35 68.5 61s23.5 55.667 23.5 89c0 50.667 -16 93 -48 127s-73.333 51 -124 51c-57.333 0 -101 -17 -131 -51s-45 -80 -45 -138
v-533h60z" />
    <glyph glyph-name="agrave" unicode="&#xe0;" horiz-adv-x="500" 
d="M125 716l137 -138h51l-111 138h-77zM424 0c-5.33301 31.333 -8.00098 63.002 -8.00098 95.002v272c0 56.667 -14.167 98 -42.5 124s-72.166 39 -131.499 39c-43.333 0 -80.833 -9.33301 -112.5 -28s-58.5 -48.667 -80.5 -90l40 -24c40 62.667 90.333 94 151 94
c43.333 0 74 -8.33301 92 -25s27 -43 27 -79v-36c-67.333 -14.667 -119.166 -27 -155.499 -37s-68 -22.333 -95 -37s-47.5 -33.334 -61.5 -56.001s-21 -51.334 -21 -86.001c0 -42 13.5 -75.167 40.5 -99.5s61.167 -36.5 102.5 -36.5c38 0 70.667 5.66699 98 17
s57.666 30 90.999 56l8 -63h58zM355.999 124.002c-26 -26.667 -55 -47.668 -87 -63.001s-62 -23 -90 -23s-50.5 7.83301 -67.5 23.5s-25.5 37.5 -25.5 65.5c0 18.667 3.16699 35 9.5 49s18.833 27.667 37.5 41s46 26.333 82 39s83 25.334 141 38.001v-170z" />
    <glyph glyph-name="aacute" unicode="&#xe1;" horiz-adv-x="500" 
d="M298 716l-111 -138h51l137 138h-77zM424 0c-5.33301 31.333 -8.00098 63.002 -8.00098 95.002v272c0 56.667 -14.167 98 -42.5 124s-72.166 39 -131.499 39c-43.333 0 -80.833 -9.33301 -112.5 -28s-58.5 -48.667 -80.5 -90l40 -24c40 62.667 90.333 94 151 94
c43.333 0 74 -8.33301 92 -25s27 -43 27 -79v-36c-67.333 -14.667 -119.166 -27 -155.499 -37s-68 -22.333 -95 -37s-47.5 -33.334 -61.5 -56.001s-21 -51.334 -21 -86.001c0 -42 13.5 -75.167 40.5 -99.5s61.167 -36.5 102.5 -36.5c38 0 70.667 5.66699 98 17
s57.666 30 90.999 56l8 -63h58zM355.999 124.002c-26 -26.667 -55 -47.668 -87 -63.001s-62 -23 -90 -23s-50.5 7.83301 -67.5 23.5s-25.5 37.5 -25.5 65.5c0 18.667 3.16699 35 9.5 49s18.833 27.667 37.5 41s46 26.333 82 39s83 25.334 141 38.001v-170z" />
    <glyph glyph-name="acircumflex" unicode="&#xe2;" horiz-adv-x="500" 
d="M284 716h-68l-114 -138h66l82 101l82 -101h66zM424 0c-5.33301 31.333 -8.00098 63.002 -8.00098 95.002v272c0 56.667 -14.167 98 -42.5 124s-72.166 39 -131.499 39c-43.333 0 -80.833 -9.33301 -112.5 -28s-58.5 -48.667 -80.5 -90l40 -24c40 62.667 90.333 94 151 94
c43.333 0 74 -8.33301 92 -25s27 -43 27 -79v-36c-67.333 -14.667 -119.166 -27 -155.499 -37s-68 -22.333 -95 -37s-47.5 -33.334 -61.5 -56.001s-21 -51.334 -21 -86.001c0 -42 13.5 -75.167 40.5 -99.5s61.167 -36.5 102.5 -36.5c38 0 70.667 5.66699 98 17
s57.666 30 90.999 56l8 -63h58zM355.999 124.002c-26 -26.667 -55 -47.668 -87 -63.001s-62 -23 -90 -23s-50.5 7.83301 -67.5 23.5s-25.5 37.5 -25.5 65.5c0 18.667 3.16699 35 9.5 49s18.833 27.667 37.5 41s46 26.333 82 39s83 25.334 141 38.001v-170z" />
    <glyph glyph-name="atilde" unicode="&#xe3;" horiz-adv-x="500" 
d="M131 589c2 14 7.00293 25.835 15.0029 35.502s18.667 14.5 32 14.5c12 0 33.333 -6.66699 64 -20l4 -2c0.666992 -0.666992 2 -1.33398 4 -2.00098c16 -6.66699 29.167 -11.834 39.5 -15.501s19.833 -5.5 28.5 -5.5c27.333 0 47.666 8.83301 60.999 26.5
s22.666 41.167 27.999 70.5h-38c-2 -13.333 -6.83301 -24.833 -14.5 -34.5s-17.834 -14.5 -30.501 -14.5s-33.667 6.33301 -63 19l-6 3c-32 14.667 -56.667 22 -74 22c-24 0 -44.167 -10 -60.5 -30s-25.5 -42.333 -27.5 -67h38zM424.003 0.00195312
c-5.33301 31.333 -8.00098 63.002 -8.00098 95.002v272c0 56.667 -14.167 98 -42.5 124s-72.166 39 -131.499 39c-43.333 0 -80.833 -9.33301 -112.5 -28s-58.5 -48.667 -80.5 -90l40 -24c40 62.667 90.333 94 151 94c43.333 0 74 -8.33301 92 -25s27 -43 27 -79v-36
c-67.333 -14.667 -119.166 -27 -155.499 -37s-68 -22.333 -95 -37s-47.5 -33.334 -61.5 -56.001s-21 -51.334 -21 -86.001c0 -42 13.5 -75.167 40.5 -99.5s61.167 -36.5 102.5 -36.5c38 0 70.667 5.66699 98 17s57.666 30 90.999 56l8 -63h58zM356.002 124.004
c-26 -26.667 -55 -47.668 -87 -63.001s-62 -23 -90 -23s-50.5 7.83301 -67.5 23.5s-25.5 37.5 -25.5 65.5c0 18.667 3.16699 35 9.5 49s18.833 27.667 37.5 41s46 26.333 82 39s83 25.334 141 38.001v-170z" />
    <glyph glyph-name="adieresis" unicode="&#xe4;" horiz-adv-x="500" 
d="M139 682v-94h66v94h-66zM295 682v-94h66v94h-66zM424 0c-5.33301 31.333 -8.00098 63.002 -8.00098 95.002v272c0 56.667 -14.167 98 -42.5 124s-72.166 39 -131.499 39c-43.333 0 -80.833 -9.33301 -112.5 -28s-58.5 -48.667 -80.5 -90l40 -24
c40 62.667 90.333 94 151 94c43.333 0 74 -8.33301 92 -25s27 -43 27 -79v-36c-67.333 -14.667 -119.166 -27 -155.499 -37s-68 -22.333 -95 -37s-47.5 -33.334 -61.5 -56.001s-21 -51.334 -21 -86.001c0 -42 13.5 -75.167 40.5 -99.5s61.167 -36.5 102.5 -36.5
c38 0 70.667 5.66699 98 17s57.666 30 90.999 56l8 -63h58zM355.999 124.002c-26 -26.667 -55 -47.668 -87 -63.001s-62 -23 -90 -23s-50.5 7.83301 -67.5 23.5s-25.5 37.5 -25.5 65.5c0 18.667 3.16699 35 9.5 49s18.833 27.667 37.5 41s46 26.333 82 39
s83 25.334 141 38.001v-170z" />
    <glyph glyph-name="aring" unicode="&#xe5;" horiz-adv-x="500" 
d="M250 774c-27.333 0 -50.833 -9.66699 -70.5 -29s-29.5 -43 -29.5 -71c0 -27.333 9.83301 -50.833 29.5 -70.5s43.167 -29.5 70.5 -29.5s50.833 9.83301 70.5 29.5s29.5 43.167 29.5 70.5c0 28 -9.83301 51.667 -29.5 71s-43.167 29 -70.5 29zM250 740
c18 0 33.5 -6.33301 46.5 -19s19.5 -28.334 19.5 -47.001s-6.5 -34.334 -19.5 -47.001s-28.5 -19 -46.5 -19s-33.5 6.33301 -46.5 19s-19.5 28.334 -19.5 47.001s6.5 34.334 19.5 47.001s28.5 19 46.5 19zM424 0c-5.33301 31.333 -8.00098 63.002 -8.00098 95.002v272
c0 56.667 -14.167 98 -42.5 124s-72.166 39 -131.499 39c-43.333 0 -80.833 -9.33301 -112.5 -28s-58.5 -48.667 -80.5 -90l40 -24c40 62.667 90.333 94 151 94c43.333 0 74 -8.33301 92 -25s27 -43 27 -79v-36c-67.333 -14.667 -119.166 -27 -155.499 -37
s-68 -22.333 -95 -37s-47.5 -33.334 -61.5 -56.001s-21 -51.334 -21 -86.001c0 -42 13.5 -75.167 40.5 -99.5s61.167 -36.5 102.5 -36.5c38 0 70.667 5.66699 98 17s57.666 30 90.999 56l8 -63h58zM355.999 124.002c-26 -26.667 -55 -47.668 -87 -63.001s-62 -23 -90 -23
s-50.5 7.83301 -67.5 23.5s-25.5 37.5 -25.5 65.5c0 18.667 3.16699 35 9.5 49s18.833 27.667 37.5 41s46 26.333 82 39s83 25.334 141 38.001v-170z" />
    <glyph glyph-name="ae" unicode="&#xe6;" horiz-adv-x="778" 
d="M338 124c-16.667 -26 -39.999 -46.833 -69.999 -62.5s-59.667 -23.5 -89 -23.5c-28 0 -50.5 7.83301 -67.5 23.5s-25.5 37.5 -25.5 65.5c0 18 3.16699 34.167 9.5 48.5s18.166 28.166 35.499 41.499s42.833 26.333 76.5 39s77.167 25.334 130.5 38.001v-170zM736.001 258
c0 84.667 -15.833 151.17 -47.5 199.503s-81.167 72.5 -148.5 72.5c-66 0 -118.667 -28.333 -158 -85c-14.667 30.667 -35.834 52.5 -63.501 65.5s-59.167 19.5 -94.5 19.5c-42.667 0 -78.5 -9.33301 -107.5 -28s-52.167 -48.667 -69.5 -90l44 -26
c12.667 32 29.834 56 51.501 72s50.167 24 85.5 24c37.333 0 65 -10 83 -30s27 -44.667 27 -74v-36l-10 -2c-60 -14.667 -106.167 -27 -138.5 -37s-61 -22.167 -86 -36.5s-44.167 -32.833 -57.5 -55.5s-20 -51 -20 -85c0 -42 13.5 -75.167 40.5 -99.5
s61.167 -36.5 102.5 -36.5s78.666 6.5 111.999 19.5s63 35.833 89 68.5c20.667 -28 45 -49.667 73 -65s59 -23 93 -23c48.667 0 88 9.5 118 28.5s59.333 51.833 88 98.5l-49 26c-26 -40.667 -49.5 -68.334 -70.5 -83.001s-48.167 -22 -81.5 -22
c-25.333 0 -47.166 5.66699 -65.499 17s-33.333 27.166 -45 47.499s-20 43.666 -25 69.999s-7.5 54.833 -7.5 85.5h338zM398.001 306.003c3.33301 52 16.832 94.333 40.499 127s56.834 49 99.501 49c42 0 74 -15.167 96 -45.5s36 -73.833 42 -130.5h-278z" />
    <glyph glyph-name="ccedilla" unicode="&#xe7;" horiz-adv-x="500" 
d="M139 -188c26 -13.333 58.001 -20.002 96.001 -20.002c25.333 0 49.166 6.83301 71.499 20.5s33.5 32.834 33.5 57.501c0 26 -7 46.5 -21 61.5s-33 22.5 -57 22.5c-12.667 0 -23 -2 -31 -6l-2 2l43 50h-38l-60 -82l15 -13c13.333 6 28 9 44 9c12 0 22.5 -3.5 31.5 -10.5
s13.5 -17.167 13.5 -30.5c0 -27.333 -22 -41 -66 -41c-7.33301 0 -15.5 1.33301 -24.5 4s-19.833 6.33398 -32.5 11.001l-2 1zM450.001 388.998c-16 44.667 -39.833 79.3359 -71.5 104.003s-71.167 37 -118.5 37c-68.667 0 -123.167 -23.167 -163.5 -69.5
s-60.5 -113.166 -60.5 -200.499c0 -80.667 19.5 -145.834 58.5 -195.501s94.167 -74.5 165.5 -74.5c46 0 85.333 11.833 118 35.5s61.334 56.167 86.001 97.5l-48 23c-23.333 -36.667 -46.5 -63.834 -69.5 -81.501s-51.833 -26.5 -86.5 -26.5
c-51.333 0 -91.5 20.167 -120.5 60.5s-43.5 94.166 -43.5 161.499c0 77.333 14.333 133.666 43 168.999s69 53 121 53c32 0 58.667 -9.5 80 -28.5s39.666 -45.5 54.999 -79.5z" />
    <glyph glyph-name="egrave" unicode="&#xe8;" horiz-adv-x="500" 
d="M125 716l137 -138h51l-111 138h-77zM458 258c0 83.333 -17.5 149.5 -52.5 198.5s-86.833 73.5 -155.5 73.5c-65.333 0 -117.333 -24.667 -156 -74s-58 -114.666 -58 -195.999c0 -89.333 19.5 -156.666 58.5 -201.999s93.5 -68 163.5 -68c48.667 0 88 9.5 118 28.5
s59.333 51.833 88 98.5l-49 26c-26 -40.667 -49.5 -68.334 -70.5 -83.001s-48.167 -22 -81.5 -22c-28.667 0 -53.667 5.66699 -75 17s-38.833 27.166 -52.5 47.499s-23.667 43.833 -30 70.5s-9.5 55 -9.5 85h362zM96 306c0 18 3.16992 37.334 9.50293 58.001
s15.666 40 27.999 58s28.166 32.5 47.499 43.5s41.666 16.5 66.999 16.5c44 -0.666992 78.5 -16.334 103.5 -47.001s40.5 -73.667 46.5 -129h-302z" />
    <glyph glyph-name="eacute" unicode="&#xe9;" horiz-adv-x="500" 
d="M298 716l-111 -138h51l137 138h-77zM458 258c0 83.333 -17.5 149.5 -52.5 198.5s-86.833 73.5 -155.5 73.5c-65.333 0 -117.333 -24.667 -156 -74s-58 -114.666 -58 -195.999c0 -89.333 19.5 -156.666 58.5 -201.999s93.5 -68 163.5 -68c48.667 0 88 9.5 118 28.5
s59.333 51.833 88 98.5l-49 26c-26 -40.667 -49.5 -68.334 -70.5 -83.001s-48.167 -22 -81.5 -22c-28.667 0 -53.667 5.66699 -75 17s-38.833 27.166 -52.5 47.499s-23.667 43.833 -30 70.5s-9.5 55 -9.5 85h362zM96 306c0 18 3.16992 37.334 9.50293 58.001
s15.666 40 27.999 58s28.166 32.5 47.499 43.5s41.666 16.5 66.999 16.5c44 -0.666992 78.5 -16.334 103.5 -47.001s40.5 -73.667 46.5 -129h-302z" />
    <glyph glyph-name="ecircumflex" unicode="&#xea;" horiz-adv-x="500" 
d="M284 716h-68l-114 -138h66l82 101l82 -101h66zM458 258c0 83.333 -17.5 149.5 -52.5 198.5s-86.833 73.5 -155.5 73.5c-65.333 0 -117.333 -24.667 -156 -74s-58 -114.666 -58 -195.999c0 -89.333 19.5 -156.666 58.5 -201.999s93.5 -68 163.5 -68
c48.667 0 88 9.5 118 28.5s59.333 51.833 88 98.5l-49 26c-26 -40.667 -49.5 -68.334 -70.5 -83.001s-48.167 -22 -81.5 -22c-28.667 0 -53.667 5.66699 -75 17s-38.833 27.166 -52.5 47.499s-23.667 43.833 -30 70.5s-9.5 55 -9.5 85h362zM96 306
c0 18 3.16992 37.334 9.50293 58.001s15.666 40 27.999 58s28.166 32.5 47.499 43.5s41.666 16.5 66.999 16.5c44 -0.666992 78.5 -16.334 103.5 -47.001s40.5 -73.667 46.5 -129h-302z" />
    <glyph glyph-name="edieresis" unicode="&#xeb;" horiz-adv-x="500" 
d="M139 682v-94h66v94h-66zM295 682v-94h66v94h-66zM458 258c0 83.333 -17.5 149.5 -52.5 198.5s-86.833 73.5 -155.5 73.5c-65.333 0 -117.333 -24.667 -156 -74s-58 -114.666 -58 -195.999c0 -89.333 19.5 -156.666 58.5 -201.999s93.5 -68 163.5 -68
c48.667 0 88 9.5 118 28.5s59.333 51.833 88 98.5l-49 26c-26 -40.667 -49.5 -68.334 -70.5 -83.001s-48.167 -22 -81.5 -22c-28.667 0 -53.667 5.66699 -75 17s-38.833 27.166 -52.5 47.499s-23.667 43.833 -30 70.5s-9.5 55 -9.5 85h362zM96 306
c0 18 3.16992 37.334 9.50293 58.001s15.666 40 27.999 58s28.166 32.5 47.499 43.5s41.666 16.5 66.999 16.5c44 -0.666992 78.5 -16.334 103.5 -47.001s40.5 -73.667 46.5 -129h-302z" />
    <glyph glyph-name="igrave" unicode="&#xec;" horiz-adv-x="222" 
d="M-14 716l137 -138h51l-111 138h-77zM141 520h-60v-520h60v520z" />
    <glyph glyph-name="iacute" unicode="&#xed;" horiz-adv-x="222" 
d="M159 716l-111 -138h51l137 138h-77zM141 520h-60v-520h60v520z" />
    <glyph glyph-name="icircumflex" unicode="&#xee;" horiz-adv-x="222" 
d="M145 716h-68l-114 -138h66l82 101l82 -101h66zM141 520h-60v-520h60v520z" />
    <glyph glyph-name="idieresis" unicode="&#xef;" horiz-adv-x="222" 
d="M0 682v-94h66v94h-66zM156 682v-94h66v94h-66zM141 520h-60v-520h60v520z" />
    <glyph glyph-name="eth" unicode="&#xf0;" horiz-adv-x="500" 
d="M250 482c52.667 0 91.5 -19 116.5 -57s37.5 -93 37.5 -165s-12.5 -127 -37.5 -165s-63.833 -57 -116.5 -57s-91.5 19 -116.5 57s-37.5 93 -37.5 165s12.5 127 37.5 165s63.833 57 116.5 57zM174 696c26 -15.333 49.9971 -33 71.9971 -53l-93 -49l28 -40l102 53
c26.667 -30 49.334 -62.333 68.001 -97l-2 -2c-27.333 14.667 -60.333 22 -99 22c-39.333 0 -72.833 -7.16699 -100.5 -21.5s-49.834 -34 -66.501 -59s-28.667 -53.5 -36 -85.5s-11 -66.667 -11 -104s3.66699 -72 11 -104s19.333 -60.5 36 -85.5s38.834 -44.667 66.501 -59
s61.167 -21.5 100.5 -21.5s72.833 7.16699 100.5 21.5s49.834 34 66.501 59s28.667 53.5 36 85.5s11 66.667 11 104c0 72 -9.66699 139.333 -29 202s-53 119.667 -101 171l93 49l-28 40l-102 -53c-19.333 17.333 -42.666 35 -69.999 53z" />
    <glyph glyph-name="ntilde" unicode="&#xf1;" 
d="M152 589c2 14 7.00293 25.835 15.0029 35.502s18.667 14.5 32 14.5c12 0 33.333 -6.66699 64 -20l4 -2c0.666992 -0.666992 2 -1.33398 4 -2.00098c16 -6.66699 29.167 -11.834 39.5 -15.501s19.833 -5.5 28.5 -5.5c27.333 0 47.666 8.83301 60.999 26.5
s22.666 41.167 27.999 70.5h-38c-2 -13.333 -6.83301 -24.833 -14.5 -34.5s-17.834 -14.5 -30.501 -14.5s-33.667 6.33301 -63 19l-6 3c-32 14.667 -56.667 22 -74 22c-24 0 -44.167 -10 -60.5 -30s-25.5 -42.333 -27.5 -67h38zM142.003 0.00195312l0.000976562 383l18 16
c33.333 30.667 59.666 52.167 78.999 64.5s42.333 18.5 69 18.5c38.667 0 66 -11 82 -33s24 -55.333 24 -100v-349h60v355c0 58 -12.5 101.667 -37.5 131s-63.833 44 -116.5 44c-36 0 -67 -7.33301 -93 -22s-54.333 -38 -85 -70v82h-60v-520h60z" />
    <glyph glyph-name="ograve" unicode="&#xf2;" horiz-adv-x="500" 
d="M120 716l137 -138h51l-111 138h-77zM250 482c52.667 0 91.5 -19 116.5 -57s37.5 -93 37.5 -165s-12.5 -127 -37.5 -165s-63.833 -57 -116.5 -57s-91.5 19 -116.5 57s-37.5 93 -37.5 165s12.5 127 37.5 165s63.833 57 116.5 57zM250 530
c-39.333 0 -72.833 -7.16699 -100.5 -21.5s-49.834 -34 -66.501 -59s-28.667 -53.5 -36 -85.5s-11 -66.667 -11 -104s3.66699 -72 11 -104s19.333 -60.5 36 -85.5s38.834 -44.667 66.501 -59s61.167 -21.5 100.5 -21.5s72.833 7.16699 100.5 21.5s49.834 34 66.501 59
s28.667 53.5 36 85.5s11 66.667 11 104s-3.66699 72 -11 104s-19.333 60.5 -36 85.5s-38.834 44.667 -66.501 59s-61.167 21.5 -100.5 21.5z" />
    <glyph glyph-name="oacute" unicode="&#xf3;" horiz-adv-x="500" 
d="M293 716l-111 -138h51l137 138h-77zM250 482c52.667 0 91.5 -19 116.5 -57s37.5 -93 37.5 -165s-12.5 -127 -37.5 -165s-63.833 -57 -116.5 -57s-91.5 19 -116.5 57s-37.5 93 -37.5 165s12.5 127 37.5 165s63.833 57 116.5 57zM250 530
c-39.333 0 -72.833 -7.16699 -100.5 -21.5s-49.834 -34 -66.501 -59s-28.667 -53.5 -36 -85.5s-11 -66.667 -11 -104s3.66699 -72 11 -104s19.333 -60.5 36 -85.5s38.834 -44.667 66.501 -59s61.167 -21.5 100.5 -21.5s72.833 7.16699 100.5 21.5s49.834 34 66.501 59
s28.667 53.5 36 85.5s11 66.667 11 104s-3.66699 72 -11 104s-19.333 60.5 -36 85.5s-38.834 44.667 -66.501 59s-61.167 21.5 -100.5 21.5z" />
    <glyph glyph-name="ocircumflex" unicode="&#xf4;" horiz-adv-x="500" 
d="M279 716h-68l-114 -138h66l82 101l82 -101h66zM250 482c52.667 0 91.5 -19 116.5 -57s37.5 -93 37.5 -165s-12.5 -127 -37.5 -165s-63.833 -57 -116.5 -57s-91.5 19 -116.5 57s-37.5 93 -37.5 165s12.5 127 37.5 165s63.833 57 116.5 57zM250 530
c-39.333 0 -72.833 -7.16699 -100.5 -21.5s-49.834 -34 -66.501 -59s-28.667 -53.5 -36 -85.5s-11 -66.667 -11 -104s3.66699 -72 11 -104s19.333 -60.5 36 -85.5s38.834 -44.667 66.501 -59s61.167 -21.5 100.5 -21.5s72.833 7.16699 100.5 21.5s49.834 34 66.501 59
s28.667 53.5 36 85.5s11 66.667 11 104s-3.66699 72 -11 104s-19.333 60.5 -36 85.5s-38.834 44.667 -66.501 59s-61.167 21.5 -100.5 21.5z" />
    <glyph glyph-name="otilde" unicode="&#xf5;" horiz-adv-x="500" 
d="M126 589c2 14 7.00293 25.835 15.0029 35.502s18.667 14.5 32 14.5c12 0 33.333 -6.66699 64 -20l4 -2c0.666992 -0.666992 2 -1.33398 4 -2.00098c16 -6.66699 29.167 -11.834 39.5 -15.501s19.833 -5.5 28.5 -5.5c27.333 0 47.666 8.83301 60.999 26.5
s22.666 41.167 27.999 70.5h-38c-2 -13.333 -6.83301 -24.833 -14.5 -34.5s-17.834 -14.5 -30.501 -14.5s-33.667 6.33301 -63 19l-6 3c-32 14.667 -56.667 22 -74 22c-24 0 -44.167 -10 -60.5 -30s-25.5 -42.333 -27.5 -67h38zM250.003 482.002
c52.667 0 91.5 -19 116.5 -57s37.5 -93 37.5 -165s-12.5 -127 -37.5 -165s-63.833 -57 -116.5 -57s-91.5 19 -116.5 57s-37.5 93 -37.5 165s12.5 127 37.5 165s63.833 57 116.5 57zM250.003 530.002c-39.333 0 -72.833 -7.16699 -100.5 -21.5s-49.834 -34 -66.501 -59
s-28.667 -53.5 -36 -85.5s-11 -66.667 -11 -104s3.66699 -72 11 -104s19.333 -60.5 36 -85.5s38.834 -44.667 66.501 -59s61.167 -21.5 100.5 -21.5s72.833 7.16699 100.5 21.5s49.834 34 66.501 59s28.667 53.5 36 85.5s11 66.667 11 104s-3.66699 72 -11 104
s-19.333 60.5 -36 85.5s-38.834 44.667 -66.501 59s-61.167 21.5 -100.5 21.5z" />
    <glyph glyph-name="odieresis" unicode="&#xf6;" horiz-adv-x="500" 
d="M134 682v-94h66v94h-66zM290 682v-94h66v94h-66zM250 482c52.667 0 91.5 -19 116.5 -57s37.5 -93 37.5 -165s-12.5 -127 -37.5 -165s-63.833 -57 -116.5 -57s-91.5 19 -116.5 57s-37.5 93 -37.5 165s12.5 127 37.5 165s63.833 57 116.5 57zM250 530
c-39.333 0 -72.833 -7.16699 -100.5 -21.5s-49.834 -34 -66.501 -59s-28.667 -53.5 -36 -85.5s-11 -66.667 -11 -104s3.66699 -72 11 -104s19.333 -60.5 36 -85.5s38.834 -44.667 66.501 -59s61.167 -21.5 100.5 -21.5s72.833 7.16699 100.5 21.5s49.834 34 66.501 59
s28.667 53.5 36 85.5s11 66.667 11 104s-3.66699 72 -11 104s-19.333 60.5 -36 85.5s-38.834 44.667 -66.501 59s-61.167 21.5 -100.5 21.5z" />
    <glyph glyph-name="divide" unicode="&#xf7;" horiz-adv-x="600" 
d="M560 233v54h-520v-54h520zM300 534c-15.333 0 -28.666 -5.66699 -39.999 -17s-17 -24.666 -17 -39.999s5.66699 -28.666 17 -39.999s24.666 -17 39.999 -17s28.666 5.66699 39.999 17s17 24.666 17 39.999s-5.66699 28.666 -17 39.999s-24.666 17 -39.999 17zM300 100
c-15.333 0 -28.666 -5.66699 -39.999 -17s-17 -24.666 -17 -39.999s5.66699 -28.666 17 -39.999s24.666 -17 39.999 -17s28.666 5.66699 39.999 17s17 24.666 17 39.999s-5.66699 28.666 -17 39.999s-24.666 17 -39.999 17z" />
    <glyph glyph-name="oslash" unicode="&#xf8;" horiz-adv-x="500" 
d="M128 106c-21.333 36 -32 87.333 -32 154c0 72 12.5 127 37.5 165s63.833 57 116.5 57c36.667 0 67 -10 91 -30zM373 413c20.667 -34.667 31 -85.667 31 -153c0 -72 -12.5 -127 -37.5 -165s-63.833 -57 -116.5 -57c-36.667 0 -66.667 9.66699 -90 29zM488 600h-57.002
l-63 -103c-31.333 22 -70.666 33 -117.999 33c-39.333 0 -72.833 -7.16699 -100.5 -21.5s-49.834 -34 -66.501 -59s-28.667 -53.5 -36 -85.5s-11 -66.667 -11 -104c0 -42 4.83301 -80.833 14.5 -116.5s24.834 -65.5 45.501 -89.5l-82 -134h56l63 103
c30.667 -22 69.667 -33 117 -33c39.333 0 72.833 7.16699 100.5 21.5s49.834 34 66.501 59s28.667 53.5 36 85.5s11 66.667 11 104c0 42 -4.66699 80.667 -14 116s-24.333 65 -45 89z" />
    <glyph glyph-name="ugrave" unicode="&#xf9;" 
d="M153 716l137 -138h51l-111 138h-77zM414 520v-383l-17 -16c-34 -30.667 -60.667 -52.167 -80 -64.5s-42.333 -18.5 -69 -18.5c-38.667 0 -66 11 -82 33s-24 55.333 -24 100v349h-60v-355c0 -58 12.5 -101.667 37.5 -131s63.833 -44 116.5 -44c36 0 67 7.33301 93 22
s54.333 38 85 70v-82h60v520h-60z" />
    <glyph glyph-name="uacute" unicode="&#xfa;" 
d="M326 716l-111 -138h51l137 138h-77zM414 520v-383l-17 -16c-34 -30.667 -60.667 -52.167 -80 -64.5s-42.333 -18.5 -69 -18.5c-38.667 0 -66 11 -82 33s-24 55.333 -24 100v349h-60v-355c0 -58 12.5 -101.667 37.5 -131s63.833 -44 116.5 -44c36 0 67 7.33301 93 22
s54.333 38 85 70v-82h60v520h-60z" />
    <glyph glyph-name="ucircumflex" unicode="&#xfb;" 
d="M312 716h-68l-114 -138h66l82 101l82 -101h66zM414 520v-383l-17 -16c-34 -30.667 -60.667 -52.167 -80 -64.5s-42.333 -18.5 -69 -18.5c-38.667 0 -66 11 -82 33s-24 55.333 -24 100v349h-60v-355c0 -58 12.5 -101.667 37.5 -131s63.833 -44 116.5 -44
c36 0 67 7.33301 93 22s54.333 38 85 70v-82h60v520h-60z" />
    <glyph glyph-name="udieresis" unicode="&#xfc;" 
d="M167 682v-94h66v94h-66zM323 682v-94h66v94h-66zM414 520v-383l-17 -16c-34 -30.667 -60.667 -52.167 -80 -64.5s-42.333 -18.5 -69 -18.5c-38.667 0 -66 11 -82 33s-24 55.333 -24 100v349h-60v-355c0 -58 12.5 -101.667 37.5 -131s63.833 -44 116.5 -44
c36 0 67 7.33301 93 22s54.333 38 85 70v-82h60v520h-60z" />
    <glyph glyph-name="yacute" unicode="&#xfd;" horiz-adv-x="444" 
d="M270 716l-111 -138h51l137 138h-77zM78 520l-66 0.000976562l181 -512c-13.333 -50 -30.333 -86.5 -51 -109.5s-42.667 -34.5 -66 -34.5c-10 0 -23.667 1.33301 -41 4c-8.66699 1.33301 -15 2.33301 -19 3v-49c14 -4 32.667 -6 56 -6c45.333 0 79.833 11.167 103.5 33.5
s44.5 60.166 62.5 113.499l194 557h-64l-145 -423h-2z" />
    <glyph glyph-name="thorn" unicode="&#xfe;" 
d="M92 -184h59.999v252c26 -28 51.167 -48 75.5 -60s53.5 -18 87.5 -18c62.667 0 112.5 22.5 149.5 67.5s55.5 111.5 55.5 199.5c0 36 -4.66699 70.5 -14 103.5s-22.833 62.167 -40.5 87.5s-39.667 45.333 -66 60s-55.833 22 -88.5 22c-63.333 0 -115.666 -30 -156.999 -90
h-2v282h-60v-906zM151.999 387c32 34 58.499 58.3311 79.499 72.998s46.5 22 76.5 22c25.333 0 47.5 -5.83301 66.5 -17.5s34.833 -27.667 47.5 -48s22.167 -43.166 28.5 -68.499s9.5 -52 9.5 -80c0 -73.333 -13.5 -130 -40.5 -170s-67.167 -60 -120.5 -60
c-14 0 -28.5 3 -43.5 9s-29.5 13.833 -43.5 23.5s-26.167 19.834 -36.5 30.501s-18.166 20.667 -23.499 30v256z" />
    <glyph glyph-name="ydieresis" unicode="&#xff;" horiz-adv-x="444" 
d="M111 682v-94h66v94h-66zM267 682v-94h66v94h-66zM78 520l-66 0.000976562l181 -512c-13.333 -50 -30.333 -86.5 -51 -109.5s-42.667 -34.5 -66 -34.5c-10 0 -23.667 1.33301 -41 4c-8.66699 1.33301 -15 2.33301 -19 3v-49c14 -4 32.667 -6 56 -6
c45.333 0 79.833 11.167 103.5 33.5s44.5 60.166 62.5 113.499l194 557h-64l-145 -423h-2z" />
    <glyph glyph-name="OE" unicode="&#x152;" horiz-adv-x="1000" 
d="M960 0v54.001h-360v294h244v54h-244v266h341v54h-389c-13.333 0 -40.333 1.66699 -81 5c-48.667 3.33301 -82.334 5 -101.001 5c-52 0 -98.167 -9.5 -138.5 -28.5s-74.166 -45.667 -101.499 -80s-47.833 -73.833 -61.5 -118.5s-20.5 -92.667 -20.5 -144
c0 -56.667 6.16699 -107.5 18.5 -152.5s31.333 -83.833 57 -116.5s59 -57.834 100 -75.501s89.833 -26.5 146.5 -26.5c15.333 0 42 1.33301 80 4c46.667 4 82 6 106 6h404zM534 144.001c0 -66.667 -47.333 -100 -142 -100c-96 0 -166.333 26.833 -211 80.5
s-67 132.5 -67 236.5c0 98 23.5 175.333 70.5 232s116.167 85 207.5 85c94.667 0 142 -33.333 142 -100v-434z" />
    <glyph glyph-name="oe" unicode="&#x153;" horiz-adv-x="833" 
d="M96 260c0 72 12.333 126.998 37 164.998s62.334 57 113.001 57c48 0 84 -19.167 108 -57.5s36 -93.166 36 -164.499s-12 -126.166 -36 -164.499s-60 -57.5 -108 -57.5c-50.667 0 -88.334 19 -113.001 57s-37 93 -37 165zM791 257.998
c0 84 -16.8271 150.335 -50.4941 199.002s-83.834 73 -150.501 73c-44.667 0 -81.334 -10.833 -110.001 -32.5s-49.334 -48.5 -62.001 -80.5c-14.667 34 -36.334 61.333 -65.001 82s-64.334 31 -107.001 31c-38 0 -70.5 -7.16699 -97.5 -21.5s-48.833 -34 -65.5 -59
s-28.667 -53.5 -36 -85.5s-11 -66.667 -11 -104s3.66699 -72 11 -104s19.333 -60.5 36 -85.5s38.5 -44.667 65.5 -59s59.5 -21.5 97.5 -21.5c42.667 0 77.834 10.333 105.501 31s49.167 48.334 64.5 83.001c18 -38 41.333 -66.5 70 -85.5s63.667 -28.5 105 -28.5
c48.667 0 88 9.5 118 28.5s59.333 51.833 88 98.5l-49 26c-26 -40.667 -49.5 -68.334 -70.5 -83.001s-48.167 -22 -81.5 -22c-26.667 0 -49.334 5.66699 -68.001 17s-33.834 27.166 -45.501 47.499s-20 43.666 -25 69.999s-7.5 54.833 -7.5 85.5h341zM450.006 306
c3.33301 53.333 16 96 38 128s55.667 48 101 48c42.667 0 75.5 -15.167 98.5 -45.5s37.5 -73.833 43.5 -130.5h-281z" />
    <glyph glyph-name="Scaron" unicode="&#x160;" 
d="M244 753h68l114 138h-66l-82 -101l-82 101h-66zM32 183c20 -66 50.6689 -114.662 92.002 -145.995s96.333 -47 165 -47c29.333 0 57.333 4.16699 84 12.5s50 20.5 70 36.5c44 35.333 66 82.666 66 141.999c0 27.333 -3.33301 50.833 -10 70.5s-18.667 38.167 -36 55.5
s-41.833 34.166 -73.5 50.499s-73.167 34.166 -124.5 53.499c-32.667 12 -58.834 23.5 -78.501 34.5s-34.334 21.667 -44.001 32s-16.167 20.666 -19.5 30.999s-5 22.5 -5 36.5c0 42 13 74.667 39 98s60.333 35 103 35c44 0 80.5 -12.167 109.5 -36.5s50.5 -57.5 64.5 -99.5
l57 17c-16.667 55.333 -45 98 -85 128s-88.667 45 -146 45c-65.333 0 -116.333 -17.333 -153 -52s-55 -79.667 -55 -135c0 -30 5.83301 -55.833 17.5 -77.5s27.334 -39.834 47.001 -54.501s40.5 -26.667 62.5 -36s50 -20.333 84 -33c30 -10.667 54.5 -20 73.5 -28
s36.667 -17.833 53 -29.5s29.333 -25.5 39 -41.5s14.5 -35 14.5 -57c0 -44 -12.833 -79 -38.5 -105s-60.834 -39 -105.501 -39c-57.333 0 -102.5 12.667 -135.5 38s-56.5 65.333 -70.5 120z" />
    <glyph glyph-name="scaron" unicode="&#x161;" horiz-adv-x="444" 
d="M188 578h68l114 138h-66l-82 -101l-82 101h-66zM25 95c24 -35.333 53.167 -61.6699 87.5 -79.0029s72.166 -26 113.499 -26c49.333 0 91.666 13.333 126.999 40s53 62.334 53 107.001c0 26.667 -5 49.334 -15 68.001s-23.5 33.834 -40.5 45.501s-34.667 20.667 -53 27
s-41.833 13.833 -70.5 22.5c-44 12 -76.167 23.833 -96.5 35.5s-30.5 30.167 -30.5 55.5c0 30 9.5 52.667 28.5 68s43.833 23 74.5 23c29.333 0 54.5 -6.5 75.5 -19.5s40.833 -32.5 59.5 -58.5l46 32c-19.333 30.667 -43.333 54 -72 70s-64.334 24 -107.001 24
c-47.333 0 -86.666 -12 -117.999 -36s-47 -59.333 -47 -106c0 -23.333 4.5 -43 13.5 -59s21.167 -29 36.5 -39s31.5 -17.833 48.5 -23.5s39.167 -12.167 66.5 -19.5c23.333 -6.66699 42.5 -12.5 57.5 -17.5s29 -11.333 42 -19s23.167 -17.5 30.5 -29.5s11 -26.667 11 -44
c0 -28 -11.167 -51.5 -33.5 -70.5s-49.833 -28.5 -82.5 -28.5c-35.333 0 -65.166 6.16699 -89.499 18.5s-48.166 35.5 -71.499 69.5z" />
    <glyph glyph-name="Ydieresis" unicode="&#x178;" 
d="M167 857v-94h66v94h-66zM323 857v-94h66v94h-66zM241 0h66v306l229 416h-74l-190 -357l-178 357h-74l221 -416v-306z" />
    <glyph glyph-name="florin" unicode="&#x192;" 
d="M499 726c-15.333 4 -35.002 6 -59.002 6c-33.333 0 -61.166 -9.66699 -83.499 -29s-39.666 -44 -51.999 -74s-21.166 -60 -26.499 -90s-10.333 -64.333 -15 -103v-1h-139v-48h134l-51 -348c-8.66699 -60 -21.167 -104.167 -37.5 -132.5s-42.5 -42.5 -78.5 -42.5
c-6.66699 0 -17.667 2.66699 -33 8l-2 1l-7 -54c13.333 -2 26.333 -3 39 -3c49.333 0 88.166 16 116.499 48s46.166 73.667 53.499 125l59 398h132v48h-127c2 10 4.66699 27.333 8 52c4 31.333 8 57.333 12 78s10.333 40.167 19 58.5s21 33 37 44s36 16.5 60 16.5
c10.667 0 21.334 -1 32.001 -3z" />
    <glyph glyph-name="circumflex" unicode="&#x2c6;" horiz-adv-x="222" 
d="M145 716h-68l-114 -138h66l82 101l82 -101h66z" />
    <glyph glyph-name="tilde" unicode="&#x2dc;" horiz-adv-x="222" 
d="M-8 589c2 14 7.00293 25.835 15.0029 35.502s18.667 14.5 32 14.5c12 0 33.333 -6.66699 64 -20l4 -2c0.666992 -0.666992 2 -1.33398 4 -2.00098c16 -6.66699 29.167 -11.834 39.5 -15.501s19.833 -5.5 28.5 -5.5c27.333 0 47.666 8.83301 60.999 26.5
s22.666 41.167 27.999 70.5h-38c-2 -13.333 -6.83301 -24.833 -14.5 -34.5s-17.834 -14.5 -30.501 -14.5s-33.667 6.33301 -63 19l-6 3c-32 14.667 -56.667 22 -74 22c-24 0 -44.167 -10 -60.5 -30s-25.5 -42.333 -27.5 -67h38z" />
    <glyph glyph-name="endash" unicode="&#x2013;" horiz-adv-x="500" 
d="M500 238v44h-500v-44h500z" />
    <glyph glyph-name="emdash" unicode="&#x2014;" horiz-adv-x="1000" 
d="M1000 282h-1000v-44h1000v44z" />
    <glyph glyph-name="quoteleft" unicode="&#x2018;" horiz-adv-x="222" 
d="M146 492v90h-42l58 150h-39l-63 -150v-90h86z" />
    <glyph glyph-name="quoteright" unicode="&#x2019;" horiz-adv-x="222" 
d="M76 722v-90h42l-58 -150h39l63 150v90h-86z" />
    <glyph glyph-name="quotesinglbase" unicode="&#x201a;" horiz-adv-x="222" 
d="M76 90v-90h42l-58 -150h39l63 150v90h-86z" />
    <glyph glyph-name="quotedblleft" unicode="&#x201c;" horiz-adv-x="444" 
d="M183 492v90h-42l58 150h-39l-63 -150v-90h86zM350 492v90h-42l58 150h-39l-63 -150v-90h86z" />
    <glyph glyph-name="quotedblright" unicode="&#x201d;" horiz-adv-x="444" 
d="M261 722v-90h42l-58 -150h39l63 150v90h-86zM94 722v-90h42l-58 -150h39l63 150v90h-86z" />
    <glyph glyph-name="quotedblbase" unicode="&#x201e;" horiz-adv-x="444" 
d="M261 90v-90h42l-58 -150h39l63 150v90h-86zM94 90v-90h42l-58 -150h39l63 150v90h-86z" />
    <glyph glyph-name="dagger" unicode="&#x2020;" horiz-adv-x="500" 
d="M264 -80l20 404l-18 177l152 -18v62l-152 -17l14 204h-60l14 -204l-152 17v-62l152 18l-18 -177l20 -404h28z" />
    <glyph glyph-name="daggerdbl" unicode="&#x2021;" horiz-adv-x="500" 
d="M418 545l-152 -17l14 204h-60l14 -204l-152 17v-62l152 18l-18 -175l18 -175l-152 18v-62l152 17l-14 -204h60l-14 204l152 -17v62l-152 -18l18 175l-18 175l152 -18v62z" />
    <glyph glyph-name="bullet" unicode="&#x2022;" horiz-adv-x="500" 
d="M69 361c0 -24.667 4.66699 -48 14 -70s22.166 -41.333 38.499 -58s35.5 -29.667 57.5 -39s45.333 -14 70 -14s48 4.66699 70 14s41.333 22.333 58 39s29.667 36 39 58s14 45.333 14 70s-4.66699 48 -14 70s-22.333 41.167 -39 57.5s-36 29.166 -58 38.499
s-45.333 14 -70 14s-48 -4.66699 -70 -14s-41.167 -22.166 -57.5 -38.499s-29.166 -35.5 -38.499 -57.5s-14 -45.333 -14 -70z" />
    <glyph glyph-name="ellipsis" unicode="&#x2026;" horiz-adv-x="1000" 
d="M210 0v90h-86v-90h86zM543 0v90h-86v-90h86zM876 0v90h-86v-90h86z" />
    <glyph glyph-name="perthousand" unicode="&#x2030;" horiz-adv-x="1000" 
d="M836 297c-20 0 -39.167 -3.83301 -57.5 -11.5s-34.5 -18.5 -48.5 -32.5s-24.833 -30 -32.5 -48s-11.5 -37 -11.5 -57s3.83301 -39 11.5 -57s18.5 -34 32.5 -48s30.167 -24.833 48.5 -32.5s37.5 -11.5 57.5 -11.5s39.167 3.83301 57.5 11.5s34.5 18.5 48.5 32.5
s24.833 30 32.5 48s11.5 37 11.5 57s-3.83301 39 -11.5 57s-18.5 34 -32.5 48s-30.167 24.833 -48.5 32.5s-37.5 11.5 -57.5 11.5zM836 253c29.333 0 54.333 -10.5 75 -31.5s31 -45.5 31 -73.5s-10.333 -52.5 -31 -73.5s-45.667 -31.5 -75 -31.5
c-28.667 0 -53.5 10.5 -74.5 31.5s-31.5 45.5 -31.5 73.5s10.5 52.5 31.5 73.5s45.833 31.5 74.5 31.5zM467 297c-20 0 -39.167 -3.83301 -57.5 -11.5s-34.5 -18.5 -48.5 -32.5s-24.833 -30 -32.5 -48s-11.5 -37 -11.5 -57s3.83301 -39 11.5 -57s18.5 -34 32.5 -48
s30.167 -24.833 48.5 -32.5s37.5 -11.5 57.5 -11.5s39.167 3.83301 57.5 11.5s34.5 18.5 48.5 32.5s24.833 30 32.5 48s11.5 37 11.5 57s-3.83301 39 -11.5 57s-18.5 34 -32.5 48s-30.167 24.833 -48.5 32.5s-37.5 11.5 -57.5 11.5zM467 253c29.333 0 54.333 -10.5 75 -31.5
s31 -45.5 31 -73.5s-10.333 -52.5 -31 -73.5s-45.667 -31.5 -75 -31.5c-28.667 0 -53.5 10.5 -74.5 31.5s-31.5 45.5 -31.5 73.5s10.5 52.5 31.5 73.5s45.833 31.5 74.5 31.5zM164 722c-20 0 -39.167 -3.83301 -57.5 -11.5s-34.5 -18.5 -48.5 -32.5s-24.833 -30 -32.5 -48
s-11.5 -37 -11.5 -57s3.83301 -39 11.5 -57s18.5 -34 32.5 -48s30.167 -24.833 48.5 -32.5s37.5 -11.5 57.5 -11.5s39.167 3.83301 57.5 11.5s34.5 18.5 48.5 32.5s24.833 30 32.5 48s11.5 37 11.5 57s-3.83301 39 -11.5 57s-18.5 34 -32.5 48s-30.167 24.833 -48.5 32.5
s-37.5 11.5 -57.5 11.5zM164 678c29.333 0 54.333 -10.5 75 -31.5s31 -45.5 31 -73.5s-10.333 -52.5 -31 -73.5s-45.667 -31.5 -75 -31.5c-28.667 0 -53.5 10.5 -74.5 31.5s-31.5 45.5 -31.5 73.5s10.5 52.5 31.5 73.5s45.833 31.5 74.5 31.5zM544 732h-52l-408 -742h52z
" />
    <glyph glyph-name="guilsinglleft" unicode="&#x2039;" horiz-adv-x="333" 
d="M251 414h-66l-121 -152l121 -156h66l-124 156z" />
    <glyph glyph-name="guilsinglright" unicode="&#x203a;" horiz-adv-x="333" 
d="M82 106h66l121 152l-121 156h-66l124 -156z" />
    <glyph glyph-name="trademark" unicode="&#x2122;" horiz-adv-x="990" 
d="M374 722h-320v-44h137v-368h50v368h133v44zM533 722h-85v-412h50v368h2l149 -368h30l149 368h2v-368h50v412h-85l-129 -328z" />
    </font>
</defs>
</svg>
